<svg xmlns="http://www.w3.org/2000/svg" width="295.171" height="272.812" viewBox="0 0 295.171 272.812"><g transform="translate(0)"><g transform="translate(262.276 7.739)"><path d="M4371.227-4555.964c-.043-.463.871-.962,2.275-1.321a1.688,1.688,0,0,0,1.266-1.532c.087-1.446.4-2.438.869-2.484s.961.873,1.321,2.275a1.689,1.689,0,0,0,1.532,1.266c1.448.087,2.443.4,2.488.868s-.873.966-2.277,1.323a1.691,1.691,0,0,0-1.268,1.532c-.087,1.448-.4,2.442-.868,2.486s-.962-.87-1.321-2.277a1.689,1.689,0,0,0-1.534-1.266c-1.446-.085-2.437-.4-2.482-.871" transform="translate(-4371.225 4561.302)"/></g><g transform="translate(235.237 147.12)"><path d="M3973.084-2504.5c-.022-.4.777-.793,1.987-1.054a1.443,1.443,0,0,0,1.131-1.267c.122-1.232.424-2.069.823-2.092s.794.776,1.053,1.986a1.446,1.446,0,0,0,1.268,1.132c1.232.122,2.072.424,2.095.823s-.777.795-1.989,1.055a1.444,1.444,0,0,0-1.133,1.266c-.121,1.234-.424,2.071-.823,2.094s-.792-.775-1.053-1.987a1.445,1.445,0,0,0-1.269-1.132c-1.232-.121-2.068-.423-2.091-.824" transform="translate(-3973.084 2508.912)"/></g><g transform="translate(148.952 20.164)"><path d="M2702.532-4372.975c-.025-.485.943-.965,2.416-1.281a1.758,1.758,0,0,0,1.375-1.539c.15-1.5.516-2.516,1-2.543s.965.943,1.281,2.414a1.755,1.755,0,0,0,1.54,1.375c1.5.149,2.519.517,2.547,1s-.943.967-2.415,1.28a1.757,1.757,0,0,0-1.377,1.542c-.15,1.5-.517,2.516-1,2.542s-.963-.94-1.281-2.415a1.753,1.753,0,0,0-1.54-1.375c-1.5-.148-2.514-.515-2.543-1" transform="translate(-2702.531 4378.339)"/></g><g transform="translate(289.772 228.258)"><path d="M4776.14-1311.835a2.011,2.011,0,0,1,1.7-2.279,2.01,2.01,0,0,1,2.279,1.7,2.012,2.012,0,0,1-1.7,2.279,2.014,2.014,0,0,1-2.28-1.7" transform="translate(-4776.119 1314.135)"/></g><g transform="translate(276.497 262.857)"><path d="M4580.665-802.368a2.011,2.011,0,0,1,1.7-2.279,2.012,2.012,0,0,1,2.28,1.7,2.013,2.013,0,0,1-1.7,2.279,2.011,2.011,0,0,1-2.278-1.7" transform="translate(-4580.644 804.668)"/></g><g transform="translate(291.296 40.902)"><path d="M4798.562-4070.853a1.938,1.938,0,0,1,1.744-2.113,1.937,1.937,0,0,1,2.113,1.745,1.937,1.937,0,0,1-1.744,2.114,1.938,1.938,0,0,1-2.113-1.746" transform="translate(-4798.553 4072.975)"/></g><g transform="translate(250.056 264.603)"><path d="M4191.3-777.776a1.033,1.033,0,0,1,.874-1.172,1.033,1.033,0,0,1,1.172.876,1.033,1.033,0,0,1-.875,1.172,1.032,1.032,0,0,1-1.17-.876" transform="translate(-4191.289 778.959)"/></g><g transform="translate(247.971 93.508)"><path d="M4160.589-3297.3a.957.957,0,0,1,.859-1.04.954.954,0,0,1,1.039.859.953.953,0,0,1-.856,1.04.956.956,0,0,1-1.042-.859" transform="translate(-4160.585 3298.348)"/></g><g transform="translate(267.437 119.251)"><path d="M4447.236-2917.418a1.852,1.852,0,0,1,1.853-1.853,1.852,1.852,0,0,1,1.853,1.853,1.853,1.853,0,0,1-1.853,1.853,1.853,1.853,0,0,1-1.853-1.853" transform="translate(-4447.236 2919.271)"/></g><path d="M1254.5-858.673c.044.465-.871.962-2.275,1.321a1.69,1.69,0,0,0-1.266,1.533c-.088,1.446-.4,2.438-.868,2.483s-.962-.871-1.321-2.275a1.69,1.69,0,0,0-1.532-1.266c-1.447-.088-2.443-.4-2.487-.867s.872-.966,2.276-1.324a1.688,1.688,0,0,0,1.268-1.533c.088-1.448.4-2.44.868-2.485s.962.871,1.322,2.276a1.689,1.689,0,0,0,1.534,1.266c1.445.087,2.438.4,2.482.87" transform="translate(-1194.795 1121.977)"/><g transform="translate(0 44.451)"><path d="M513.286-4018.7a2.046,2.046,0,0,1-2.017,2.074,2.045,2.045,0,0,1-2.075-2.017,2.045,2.045,0,0,1,2.017-2.074,2.045,2.045,0,0,1,2.075,2.017" transform="translate(-509.194 4020.717)"/></g><g transform="translate(27.011 14.016)"><path d="M911.022-4466.863a2.045,2.045,0,0,1-2.017,2.074,2.045,2.045,0,0,1-2.075-2.016,2.045,2.045,0,0,1,2.017-2.075,2.046,2.046,0,0,1,2.075,2.017" transform="translate(-906.93 4468.879)"/></g><path d="M517.2-1048.28a1.938,1.938,0,0,1-1.746,2.114,1.938,1.938,0,0,1-2.113-1.746,1.938,1.938,0,0,1,1.746-2.113,1.938,1.938,0,0,1,2.113,1.746" transform="translate(-513.051 1296.228)"/><path d="M1023.833-1303.066a1,1,0,0,1-.9,1.086,1,1,0,0,1-1.087-.9,1,1,0,0,1,.9-1.088,1,1,0,0,1,1.087.9" transform="translate(-987.029 1532.918)"/><g transform="translate(137.458 75.966)"><path d="M2598.938-3556.651s2.755,25.613-11.675,49.688c-10.106,16.859-34.23,28.84-34.23,28.84l-19.76-19.286s23.13-13.508,30.912-24.529c10.334-14.636,11.161-25.366,11.521-29.436l23.232-5.277" transform="translate(-2533.273 3556.651)" fill="#fff"/></g><g transform="translate(137.458 75.966)"><path d="M2588.266-3508.691q-.484.869-1,1.728c-6.182,10.314-17.614,18.8-25.557,23.837-5.04,3.2-8.673,5-8.673,5l-19.76-19.283s23.131-13.505,30.909-24.529c10.339-14.636,11.164-25.367,11.524-29.437l23.233-5.277s2.622,24.4-10.674,47.96" transform="translate(-2533.273 3556.651)" fill="#fff"/></g><g transform="translate(137.458 75.966)"><path d="M2599.148-3550.513c-.092,8.725-1.655,25.477-10.881,41.823q-.484.869-1,1.728c-6.182,10.314-17.614,18.8-25.557,23.837-5.04,3.2-8.673,5-8.673,5l-19.76-19.283s23.131-13.505,30.909-24.529c10.339-14.636,11.164-25.367,11.524-29.437l12.041-2.734,11.192-2.543a57.623,57.623,0,0,1,.207,6.138" transform="translate(-2533.274 3556.651)" fill="#fff"/></g><g transform="translate(191.933 75.966)"><path d="M3346.819-3550.513c-4.367,4.084-10.914,4.084-10.914,4.084l-.486-7.68,11.192-2.542a57.736,57.736,0,0,1,.208,6.138" transform="translate(-3335.419 3556.651)" fill="#e8e8e8"/></g><g transform="translate(163.041 123.927)"><path d="M2939.394-2850.417q-.486.867-1,1.727c-6.181,10.314-17.614,18.8-25.556,23.837-1.587-8.123-3.165-16.847-2.8-16.847.56,0,18.375.834,29.356-8.717" transform="translate(-2909.984 2850.417)" fill="#e8e8e8"/></g><g transform="translate(135.076 74.512)"><path d="M2520.058-3496.322l-21.865-21.34,1.649-.963c.228-.133,22.947-13.476,30.457-24.11,9.973-14.126,10.9-24.615,11.245-28.564l.015-.163a1.452,1.452,0,0,1,1.578-1.321,1.456,1.456,0,0,1,1.321,1.576l-.015.162c-.367,4.163-1.342,15.221-11.769,29.988-6.745,9.551-24.252,20.636-29.732,23.967l17.655,17.231c4.454-2.365,24.052-13.348,32.719-27.811,14.02-23.386,11.5-48.532,11.478-48.784a1.456,1.456,0,0,1,1.292-1.6,1.456,1.456,0,0,1,1.6,1.29c.113,1.066,2.639,26.377-11.874,50.593-10.208,17.028-33.83,28.9-34.831,29.394l-.925.458" transform="translate(-2498.194 3578.066)" fill="#371a45"/></g><g transform="translate(170.776 107.079)"><path d="M3023.882-3098.516s10.106,12.223,24.393,11.575" transform="translate(-3023.882 3098.516)" fill="#fff"/></g><g transform="translate(169.321 105.624)"><path d="M3027.2-3105.428c-14.2,0-23.979-11.62-24.4-12.129a1.455,1.455,0,0,1,.2-2.047,1.453,1.453,0,0,1,2.046.193c.1.116,9.841,11.654,23.206,11.051a1.46,1.46,0,0,1,1.52,1.386,1.455,1.455,0,0,1-1.387,1.52c-.4.018-.79.027-1.179.027" transform="translate(-3002.465 3119.938)" fill="#371a45"/></g><g transform="translate(167.616 73.407)"><path d="M3001.549-3587.324l-19.6,10.441a1.82,1.82,0,0,1-2.46-.751l-1.911-3.587a1.821,1.821,0,0,1,.751-2.46l19.6-10.441a1.818,1.818,0,0,1,2.46.749l1.911,3.589a1.819,1.819,0,0,1-.75,2.46" transform="translate(-2977.361 3594.336)" fill="#27c7ff"/></g><g transform="translate(168.785 76.165)"><path d="M3017.376-3553.717l1.115,2.094a1.48,1.48,0,0,1-.61,2l-20.2,10.76a1.482,1.482,0,0,1-2-.61l-1.115-2.095,22.813-12.15" transform="translate(-2994.563 3553.717)" fill="#29a9ff"/></g><g transform="translate(166.16 71.953)"><path d="M2978.792-3612.83a.364.364,0,0,0-.172.044l-19.6,10.44a.359.359,0,0,0-.177.216.351.351,0,0,0,.027.276l1.911,3.589a.363.363,0,0,0,.492.15l19.6-10.441a.356.356,0,0,0,.177-.214.35.35,0,0,0-.027-.276l-1.91-3.589a.368.368,0,0,0-.321-.193m-17.687,17.666a3.273,3.273,0,0,1-2.893-1.734l-1.913-3.588a3.259,3.259,0,0,1-.241-2.495,3.24,3.24,0,0,1,1.592-1.932l19.6-10.441a3.274,3.274,0,0,1,4.427,1.35l1.912,3.589a3.25,3.25,0,0,1,.242,2.492,3.251,3.251,0,0,1-1.592,1.935l-19.6,10.441a3.257,3.257,0,0,1-1.533.384" transform="translate(-2955.914 3615.738)" fill="#371a45"/></g><g transform="translate(164.615 81.863)"><path d="M2941.3-3458.1l-1.049.56a1.818,1.818,0,0,1-2.46-.751l-4.421-8.3a1.818,1.818,0,0,1,.75-2.459l1.051-.559a1.816,1.816,0,0,1,2.458.75l4.421,8.3a1.817,1.817,0,0,1-.75,2.459" transform="translate(-2933.158 3469.821)" fill="#27c7ff"/></g><g transform="translate(168.006 88.792)"><path d="M2987.354-3367.789l1.4,2.636a1.479,1.479,0,0,1-.61,2l-1.646.877a1.479,1.479,0,0,1-2-.612l-1.4-2.635,4.258-2.267" transform="translate(-2983.096 3367.789)" fill="#29a9ff"/></g><g transform="translate(163.162 80.409)"><path d="M2916.093-3488.33a.36.36,0,0,0-.17.044l-1.048.558a.364.364,0,0,0-.15.493l4.42,8.3a.373.373,0,0,0,.216.178.366.366,0,0,0,.277-.028l1.05-.56a.363.363,0,0,0,.15-.491l-4.422-8.3A.363.363,0,0,0,2916.093-3488.33Zm3.378,12.5a3.278,3.278,0,0,1-2.894-1.734l-4.42-8.3a3.278,3.278,0,0,1,1.35-4.428l1.049-.558a3.278,3.278,0,0,1,4.428,1.35l4.422,8.3a3.276,3.276,0,0,1-1.351,4.426l-1.048.559a3.254,3.254,0,0,1-1.534.384" transform="translate(-2911.773 3491.237)" fill="#371a45"/></g><g transform="translate(240.548 39.317)"><path d="M4061.643-4091.16c2.1,3.944,1.8,8.211-.675,9.528s-6.184-.812-8.284-4.757-1.8-8.211.674-9.527,6.184.812,8.285,4.756" transform="translate(-4051.285 4096.307)" fill="#f0fafc"/></g><g transform="translate(239.09 37.86)"><path d="M4034.951-4114.852a1.951,1.951,0,0,0-.921.21c-1.51.806-1.913,4.111-.075,7.563s4.8,4.961,6.316,4.156,1.914-4.108.075-7.561c-1.514-2.845-3.792-4.369-5.4-4.369m4.39,15.061c-2.831,0-5.994-2.242-7.953-5.919-2.517-4.726-1.956-9.775,1.274-11.5s7.736.63,10.252,5.356,1.956,9.775-1.276,11.5a4.834,4.834,0,0,1-2.3.563" transform="translate(-4029.814 4117.771)" fill="#371a45"/></g><g transform="translate(176.59 60.395)"><path d="M3146.463-3774.945l-30.265,16.12a1.819,1.819,0,0,1-2.46-.75l-4.029-7.569a1.816,1.816,0,0,1,.75-2.459l30.264-16.119a1.819,1.819,0,0,1,2.46.75l4.031,7.568a1.819,1.819,0,0,1-.75,2.46" transform="translate(-3109.494 3785.936)" fill="#27c7ff"/></g><g transform="translate(178.044 64.494)"><path d="M3132.139-3709.339l-1.191-2.234a.368.368,0,0,1,.151-.494l25.383-13.518,1.378,2.588-25.384,13.518a1.807,1.807,0,0,1-.338.14" transform="translate(-3130.906 3725.584)" fill="#a9e9ff"/></g><g transform="translate(179.785 66.959)"><path d="M3190.012-3689.29l1.236,2.321a1.543,1.543,0,0,1-.718,2.058l-30.648,16.324a1.545,1.545,0,0,1-2.109-.553l-1.236-2.321,33.475-17.829" transform="translate(-3156.538 3689.29)" fill="#29a9ff"/></g><g transform="translate(188.982 75.894)"><path d="M3299.476-3557.716l1.9,3.573-7.5,3.994-1.9-3.574,7.5-3.993" transform="translate(-3291.979 3557.716)" fill="#e8e8e8"/></g><g transform="translate(185.147 68.691)"><path d="M3248.732-3653l-7.5,3.992-5.74-10.777,7.5-3.993,5.741,10.778" transform="translate(-3235.495 3663.774)" fill="#fff"/></g><g transform="translate(188.982 75.894)"><path d="M3299.476-3557.716l1.9,3.573-7.5,3.994-1.9-3.574,7.5-3.993" transform="translate(-3291.979 3557.716)" fill="#e8e8e8"/></g><g transform="translate(183.179 66.724)"><path d="M3210.462-3686.185l4.372,8.209,4.929-2.624-4.373-8.21Zm3.172,12.145-7.108-13.345,10.063-5.36,7.108,13.345-10.064,5.36" transform="translate(-3206.526 3692.745)" fill="#371a45"/></g><g transform="translate(175.135 58.939)"><path d="M3126.5-3794.933h0m-4.887-9.537a.351.351,0,0,0-.168.042l-30.267,16.121a.362.362,0,0,0-.149.492l4.031,7.567a.365.365,0,0,0,.492.15l30.263-16.118a.352.352,0,0,0,.178-.214.358.358,0,0,0-.027-.278l-4.03-7.568a.365.365,0,0,0-.216-.178.426.426,0,0,0-.108-.016m-26.226,27.324a3.276,3.276,0,0,1-2.895-1.733l-4.033-7.569a3.278,3.278,0,0,1,1.352-4.427L3120.078-3807a3.242,3.242,0,0,1,2.491-.241,3.248,3.248,0,0,1,1.935,1.592l4.031,7.568a3.255,3.255,0,0,1,.243,2.493,3.248,3.248,0,0,1-1.592,1.933l-30.265,16.12a3.257,3.257,0,0,1-1.533.384" transform="translate(-3088.078 3807.381)" fill="#371a45"/></g><g transform="translate(203.88 43.404)"><path d="M3550.452-4021.452l-30.439,16.212a1.819,1.819,0,0,1-2.46-.75l-5.993-11.25a1.819,1.819,0,0,1,.751-2.459l30.439-16.21a1.817,1.817,0,0,1,2.46.749l5.991,11.25a1.818,1.818,0,0,1-.749,2.459" transform="translate(-3511.347 4036.125)" fill="#27c7ff"/></g><g transform="translate(205.676 54.406)"><path d="M3539.683-3862.824l-1.888-3.548,14.569-7.759.61,1.146,1.094,2.055h0l.186.347-14.571,7.759" transform="translate(-3537.794 3874.131)" fill="#a9e9ff"/></g><g transform="translate(208.058 51.807)"><path d="M3606.513-3912.4l2.19,4.11a1.482,1.482,0,0,1-.611,2l-31.037,16.529a1.476,1.476,0,0,1-2-.611l-2.188-4.108,33.648-17.922" transform="translate(-3572.865 3912.397)" fill="#29a9ff"/></g><g transform="translate(202.424 41.95)"><path d="M3523.622-4054.63a.352.352,0,0,0-.17.043l-30.44,16.212a.355.355,0,0,0-.176.213.354.354,0,0,0,.026.277l5.992,11.25a.362.362,0,0,0,.215.179.363.363,0,0,0,.277-.028l30.439-16.213a.364.364,0,0,0,.148-.492l-5.991-11.25a.367.367,0,0,0-.322-.193m-24.444,31.1a3.289,3.289,0,0,1-.958-.145,3.26,3.26,0,0,1-1.934-1.594l-5.993-11.249a3.263,3.263,0,0,1-.24-2.495,3.256,3.256,0,0,1,1.592-1.934l30.439-16.211a3.277,3.277,0,0,1,4.429,1.349l5.991,11.251a3.278,3.278,0,0,1-1.351,4.427l-30.439,16.212a3.252,3.252,0,0,1-1.535.387" transform="translate(-3489.909 4057.539)" fill="#371a45"/></g><g transform="translate(218.046 36.719)"><path d="M3753.075-4113.735l-21.191,11.286a1.817,1.817,0,0,1-2.459-.75l-9.271-17.407a1.817,1.817,0,0,1,.75-2.459l21.191-11.286a1.819,1.819,0,0,1,2.46.75l9.271,17.407a1.817,1.817,0,0,1-.75,2.459" transform="translate(-3719.939 4134.565)" fill="#27c7ff"/></g><g transform="translate(220.855 55.551)"><path d="M3762.4-3855.21l-1.094-2.056,1.094,2.056h0" transform="translate(-3761.308 3857.266)" fill="#ddf6ff"/></g><g transform="translate(219.738 40.46)"><path d="M3747.072-4062.335l-1.094-2.054-1.117-2.1,24.4-13,1.722,3.231.49.919-24.4,12.994" transform="translate(-3744.861 4079.479)" fill="#a9e9ff"/></g><g transform="translate(224.025 48.509)"><path d="M3832.394-3960.961l3.544,6.656a1.735,1.735,0,0,1-.715,2.344l-21.345,11.369a1.733,1.733,0,0,1-2.343-.714l-3.545-6.656,24.4-13" transform="translate(-3807.99 3960.961)" fill="#29a9ff"/></g><g transform="translate(216.592 35.266)"><path d="M3733.121-4133.685h0Zm-10.127-19.375a.371.371,0,0,0-.17.042l-21.192,11.286a.366.366,0,0,0-.15.493l9.273,17.407a.352.352,0,0,0,.214.177.36.36,0,0,0,.278-.026l21.19-11.288a.354.354,0,0,0,.177-.214.35.35,0,0,0-.026-.277l-9.271-17.407A.365.365,0,0,0,3722.994-4153.06Zm-11.914,32.333a3.263,3.263,0,0,1-.96-.146,3.245,3.245,0,0,1-1.933-1.591l-9.271-17.407a3.277,3.277,0,0,1,1.35-4.427l21.192-11.286a3.276,3.276,0,0,1,4.427,1.349l9.271,17.408a3.257,3.257,0,0,1,.242,2.493,3.256,3.256,0,0,1-1.592,1.934l-21.192,11.288a3.25,3.25,0,0,1-1.533.386" transform="translate(-3698.531 4155.968)" fill="#371a45"/></g><g transform="translate(237.869 36.719)"><path d="M4025.152-4113.745l-1.368.729a1.818,1.818,0,0,1-2.459-.752l-9.271-17.407a1.82,1.82,0,0,1,.75-2.459l1.368-.727a1.816,1.816,0,0,1,2.46.749l9.271,17.408a1.818,1.818,0,0,1-.75,2.46" transform="translate(-4011.839 4134.576)" fill="#fff"/></g><g transform="translate(236.415 35.266)"><path d="M3995.068-4153.06a.37.37,0,0,0-.17.042l-1.368.729a.364.364,0,0,0-.15.492l9.271,17.407a.355.355,0,0,0,.214.178.365.365,0,0,0,.277-.028l1.368-.729a.355.355,0,0,0,.177-.214.355.355,0,0,0-.027-.277l-9.271-17.407A.364.364,0,0,0,3995.068-4153.06Zm10.127,19.375h0Zm-2.218,2.4a3.29,3.29,0,0,1-.958-.143,3.257,3.257,0,0,1-1.935-1.592l-9.271-17.407a3.277,3.277,0,0,1,1.35-4.428l1.369-.728a3.276,3.276,0,0,1,4.427,1.349l9.271,17.408a3.255,3.255,0,0,1,.242,2.493,3.254,3.254,0,0,1-1.592,1.934l-1.369.729a3.248,3.248,0,0,1-1.534.385" transform="translate(-3990.428 4155.968)" fill="#371a45"/></g><g transform="translate(178.814 57.43)"><path d="M3147.316-3813.655s1.751.723,5.738-.527c4.3-1.349,4.3-3.392,5.672-3.959s4.809-1.638,5.834-4.142a5.361,5.361,0,0,0-5.363-7.312c-4.258.156-5.016,3.453-5.929,3.765-13.653,4.676-10.776,14.745-10.776,14.745l4.824-2.571" transform="translate(-3142.239 3829.599)" fill="#fff"/></g><g transform="translate(178.813 57.432)"><path d="M3164.557-3822.258c-1.025,2.506-4.463,3.578-5.837,4.141s-1.366,2.613-5.669,3.962c-3.988,1.25-5.738.527-5.738.527l-4.825,2.571a10.753,10.753,0,0,1,.72-6.8c1.269-2.814,4.08-5.9,10.058-7.945.911-.313,1.669-3.608,5.926-3.763a5.43,5.43,0,0,1,4.989,2.621,5.229,5.229,0,0,1,.375,4.688" transform="translate(-3142.235 3829.571)" fill="#fff"/></g><g transform="translate(178.813 60.057)"><path d="M3164.551-3786.227c-1.025,2.5-4.462,3.579-5.836,4.141s-1.368,2.612-5.67,3.961c-3.988,1.251-5.738.528-5.738.528l-4.825,2.57a10.76,10.76,0,0,1,.72-6.8,10.359,10.359,0,0,0,7.441,1.458c4.065-.593,4.789-3.278,6.065-3.917,1.161-.584,7.32-2.9,7.469-6.629a5.231,5.231,0,0,1,.374,4.688" transform="translate(-3142.229 3790.915)" fill="#e8e8e8"/></g><g transform="translate(177.385 55.976)"><path d="M3139.822-3848.093c-.058,0-.117,0-.177,0a4.653,4.653,0,0,0-3.974,2.308,3.349,3.349,0,0,1-1.536,1.378c-8.765,3-10.052,8.269-10.057,11.086l2.95-1.572a1.28,1.28,0,0,1,1.217-.071c.2.055,1.695.4,4.769-.56a6.818,6.818,0,0,0,3.818-2.465,4.47,4.47,0,0,1,1.733-1.451c.162-.066.35-.138.557-.22,1.333-.517,3.812-1.481,4.488-3.128a3.8,3.8,0,0,0-.425-3.626A4,4,0,0,0,3139.822-3848.093Zm-16.937,18.514a1.461,1.461,0,0,1-.568-.115,1.459,1.459,0,0,1-.83-.939c-.034-.115-3.059-11.363,11.524-16.457.088-.1.22-.282.321-.421a7.478,7.478,0,0,1,6.2-3.484,6.884,6.884,0,0,1,6.033,2.921,6.7,6.7,0,0,1,.73,6.395c-1.147,2.8-4.386,4.062-6.126,4.736-.186.074-.355.14-.5.2a2.553,2.553,0,0,0-.6.616,9.637,9.637,0,0,1-5.189,3.387,12.674,12.674,0,0,1-5.985.687l-4.329,2.3a1.447,1.447,0,0,1-.684.171" transform="translate(-3121.205 3851.002)" fill="#371a45"/></g><g transform="translate(185.377 70.215)"><path d="M3239.079-3623.609a33.7,33.7,0,0,1,.374-9.619c1.083-4.642,7.916-9.381,10.3-7.789,4.374,2.923-1.233,7.547-1.3,8.022s1.688,3.741.6,7.337" transform="translate(-3238.891 3641.332)" fill="#fff"/></g><g transform="translate(183.926 68.696)"><path d="M3218.092-3644.27a22.029,22.029,0,0,1,.209-10.765c1.114-3.936,8.152-10.64,12.36-8.126a4.712,4.712,0,0,1,2.169,5.331,12.283,12.283,0,0,1-3.031,4.686,1.284,1.284,0,0,0,.187-.8c.762,2.235,1.25,5.266.2,7.74a1.1,1.1,0,0,1-2.088-.629,11.627,11.627,0,0,0-.839-6.125,2.561,2.561,0,0,1-.166-1.055,2.233,2.233,0,0,1,.606-1.171c.437-.512.946-1.1,1.32-1.638.633-.985,1.325-2.008.757-3.037-.174-.331-.9-.885-.932-.788-1.866,0-3.893,1.591-5.306,2.935a10.175,10.175,0,0,0-2.479,3.618,16.532,16.532,0,0,0-.526,2.228,29.486,29.486,0,0,0-.294,7.257,1.094,1.094,0,0,1-2.151.339" transform="translate(-3217.527 3663.711)" fill="#371a45"/></g><g transform="translate(17.556 1.566)"><path d="M1036.378-4448.564a145.917,145.917,0,0,1-23.227,27.323A146.837,146.837,0,0,1,984.1-4400.4a145.207,145.207,0,0,1-19.087,8.719q-4.442,1.658-9.012,3.032a145.524,145.524,0,0,1-58.765,5.15,145.88,145.88,0,0,1-53.656-17.056,144.29,144.29,0,0,1-14.808-9.346,146.261,146.261,0,0,1-60.087-135.7,145.987,145.987,0,0,1,64.528-105.162,8.383,8.383,0,0,1,12.743,9.209q-1.053,3.8-1.93,7.686a151.837,151.837,0,0,0-2.557,15.176,147.016,147.016,0,0,0-.191,32.121c.2,1.869.433,3.724.7,5.578q.981,6.79,2.57,13.385,1.146,4.778,2.613,9.429c.466,1.505.969,3,1.487,4.48q1.954,5.591,4.349,10.975,1.292,2.94,2.734,5.815c.671,1.348,1.352,2.683,2.068,4.013q1.254,2.333,2.588,4.614,2.844,4.891,6.057,9.539c.294.419.588.839.877,1.25q2.66,3.758,5.538,7.327l0,.008c.447.556.9,1.1,1.351,1.657,1.933,2.337,3.949,4.61,6.019,6.822,1.12,1.2,2.265,2.377,3.435,3.53.244.246.489.492.734.729.172.175.345.342.525.513.373.368.761.734,1.135,1.1q3.047,2.9,6.25,5.608c.645.552,1.294,1.086,1.944,1.618.7.573,1.41,1.146,2.128,1.708,1.874,1.473,3.8,2.917,5.746,4.3q4.558,3.253,9.376,6.138,4.94,2.963,10.127,5.544a144.526,144.526,0,0,0,14.179,6.137,142.569,142.569,0,0,0,14.035,4.4c.977.259,1.962.507,2.943.739,2.126.5,4.268.968,6.427,1.376q5.325,1.018,10.8,1.662c.239.026.479.058.72.072,2.88.325,5.753.552,8.611.7a144.519,144.519,0,0,0,17.162-.114c1.685-.106,3.368-.247,5.039-.417a144.8,144.8,0,0,0,25.5-4.888,8.393,8.393,0,0,1,9.319,12.655" transform="translate(-767.707 4652.2)" fill="#ffd243"/></g><g transform="translate(20.729 1.563)"><path d="M815.409-4549.252a146.3,146.3,0,0,0,128.546,162.1,145.693,145.693,0,0,0,58.769-5.156,146.02,146.02,0,0,0,33.823-15.051q-6.234,2.519-12.719,4.47a145.714,145.714,0,0,1-58.771,5.157A146.065,146.065,0,0,1,855.036-4470.1a15.116,15.116,0,0,0,6.825-1.547c10.266-5.05,13.474-20.942,7.167-35.5s-19.743-22.26-30.007-17.211a15.052,15.052,0,0,0-2.134,1.277,146.469,146.469,0,0,1-.371-36.755A145.746,145.746,0,0,1,884-4651.816a8.237,8.237,0,0,0-7.248,1.015,147.165,147.165,0,0,0-27.761,23.891,145.623,145.623,0,0,0-33.586,77.658" transform="translate(-814.431 4652.238)" fill="#ffa92c"/></g><g transform="translate(189.9 211.864)"><path d="M3326.645-1554.392c-8.558-3.1-17.687.293-20.391,7.572s2.04,15.687,10.6,18.784,17.687-.293,20.391-7.572-2.04-15.688-10.6-18.784" transform="translate(-3305.494 1555.539)" fill="#ffa92c"/></g><g transform="translate(195.37 221.95)"><path d="M3397.866-1407.023c-6.831.167-12.12,4.774-11.815,10.291s6.09,9.854,12.921,9.688,12.12-4.774,11.815-10.291-6.09-9.854-12.921-9.688" transform="translate(-3386.039 1407.028)" fill="#ffd243"/></g><g transform="translate(103.51 224.547)"><path d="M2071.833-1355.288a15.7,15.7,0,0,1-1.857,3.7c-5.593,8.246-17.687,9.578-27.018,2.975-7.005-4.963-10.461-12.99-9.377-20.166l38.253,13.5" transform="translate(-2033.384 1368.783)" fill="#ffd243"/></g><g transform="translate(102.794 224.125)"><path d="M2062.551-1360.9c-1.776,7.642-9.911,12.637-17.634,12.167-10.3-.334-19.84-8.32-21.743-18.454a18.048,18.048,0,0,1,.12-7.467.467.467,0,0,1,.92.139,20.851,20.851,0,0,0,3.843,13c6.21,9.2,20.484,13.53,29.351,5.7a16.211,16.211,0,0,0,4.053-5.462.581.581,0,0,1,1.09.379" transform="translate(-2022.842 1375.003)" fill="#371a45"/></g><g transform="translate(30.724 119.535)"><path d="M994.634-2912.433a22.045,22.045,0,0,0-14.4-2.276c-8.755,1.75-14.626,9.057-17.268,19.059a46.034,46.034,0,0,0-.007,22.121c4.683,19.918,20.232,33.717,34.731,30.82a21.087,21.087,0,0,0,13.154-8.982c5.517-7.875,7.062-19.69,4.122-32.2l-20.328-28.544" transform="translate(-961.612 2915.092)" fill="#ffd243"/></g><g transform="translate(29.349 119.92)"><path d="M961.349-2909.434c-14.655,4.125-18.638,22.042-16.806,35.393,1.8,13.193,8.6,26.675,20.573,33.267,6.727,3.736,15.17,3.793,21.574-.713a25.407,25.407,0,0,0,5.269-4.93,22.806,22.806,0,0,1-4.744,5.617c-8.309,7.055-19.8,5.61-28.126-.643-14.026-10.449-20.456-30.316-16.658-47.2,2.1-9.511,8.525-19.526,18.918-20.795" transform="translate(-941.355 2909.434)" fill="#371a45"/></g><g transform="translate(187.772 209.67)"><path d="M3287.218-1557.007c-8.982-2.445-16-12.517-11.83-21.658a15.013,15.013,0,0,1,8.156-7.735c12.234-5.28,29.144,4.605,26.762,18.693a13.294,13.294,0,0,1-6.1,8.775.461.461,0,0,1-.645-.1.473.473,0,0,1,.107-.657,18.484,18.484,0,0,0,1.794-1.742,12.1,12.1,0,0,0,2.923-6.583c1.125-10.085-9.731-17.749-19.078-16.651-10.813,1.005-16.119,11.634-9.451,20.536a19.354,19.354,0,0,0,7.753,6.041.579.579,0,0,1-.394,1.086" transform="translate(-3274.153 1587.843)" fill="#371a45"/></g><g transform="translate(180.553 218.603)"><path d="M3216.76-1449.851a18.606,18.606,0,0,1-6.018,19.446c-5.545,4.724-13.263,6.3-20.336,5.14-12.2-1.783-23.878-12.727-22.426-25.7a17.977,17.977,0,0,1,1.385-5.071.466.466,0,0,1,.614-.239.467.467,0,0,1,.26.559,18.833,18.833,0,0,0-.762,4.858c-.162,15.21,16.988,25.562,30.951,22.262,9.927-2.064,16.891-10.7,15.208-21.007a.578.578,0,0,1,1.125-.252" transform="translate(-3167.857 1456.309)" fill="#371a45"/></g><g transform="translate(110.416 216.914)"><path d="M2135.2-1471.22c-.684,4.223,1.55,8.956,6.058,11.891,6,3.905,13.767,3.143,17.345-1.7a8.9,8.9,0,0,0,1.186-2.174c3.379-8.392-2.611-14.764-8.643-17.012-6.816-2.541-14.062-.224-15.946,9" transform="translate(-2135.074 1481.181)" fill="#ffa92c"/></g><g transform="translate(110.92 224.134)"><path d="M2142.622-1371.412c-.683,4.223,1.551,8.956,6.059,11.892,6,3.905,13.768,3.142,17.345-1.7a8.93,8.93,0,0,0,1.186-2.174,14.8,14.8,0,0,0-6.48-8.718c-6.1-3.966-13.846-3.565-18.11.7" transform="translate(-2142.501 1374.865)" fill="#ffd243"/></g><g transform="translate(109.563 217.191)"><path d="M2143.189-1475.236c4.982,2.908,8.216,9.195,6.752,14.981-1.445,6.367-8.113,9.855-14.274,8.717-8.889-1.393-16.015-11.358-11.988-20a10.835,10.835,0,0,1,2.666-3.472,10.468,10.468,0,0,1,3.746-2.069.468.468,0,0,1,.585.308.471.471,0,0,1-.241.557c-10.637,5.719-4.625,20.067,5.732,21.607,6.336,1.073,11.955-3.36,11.527-9.914a14.118,14.118,0,0,0-5.17-9.774.579.579,0,0,1,.665-.942" transform="translate(-2122.526 1477.099)" fill="#371a45"/></g><g transform="translate(36.668 128.502)"><path d="M1089.088-2764.75c-6.181-14.24-19.432-21.743-29.6-16.757s-13.4,20.571-7.214,34.811,19.433,21.743,29.6,16.757,13.395-20.57,7.214-34.811" transform="translate(-1049.137 2783.049)" fill="#ffa92c"/></g><g transform="translate(37.354 137.695)"><path d="M1089.06-2633.089c-6.121-11.644-16.839-17.536-23.939-13.161s-7.894,17.361-1.773,29.006,16.839,17.536,23.939,13.16,7.894-17.362,1.773-29.006" transform="translate(-1059.23 2647.695)" fill="#ffd243"/></g><g transform="translate(36.537 126.721)"><path d="M1064.735-2754.937c7.215,3.4,15.225,1.494,19.635-5.242,6.856-10.643,4.634-25.444-2.13-35.619-5.255-8.1-15.932-14.37-24.835-8.166-8.38,6.206-9.757,18.013-7.952,27.707a.466.466,0,0,1-.905.212c-2.831-10.146-1.572-23.12,7.351-30,7.279-5.531,16.982-3.436,23.422,2.329,6.258,5.407,10.111,13.246,11.555,21.288,1.881,10.511-.6,23.711-10.753,29.177a15.925,15.925,0,0,1-8.12,1.712,18.208,18.208,0,0,1-7.79-2.368.577.577,0,0,1,.523-1.028" transform="translate(-1047.201 2809.276)" fill="#371a45"/></g><g transform="translate(184.523 192.158)"><path d="M3303.208-1806.013l-.021-.014s21.554-21.085,13.032-25.915c-1.006-.571-3.327-.744-6.7-.744-2.65,0-5.95.108-9.77.216s-8.161.215-12.9.215c-17.073,0-39.255-1.4-60.54-9.242a48.031,48.031,0,0,0,4.434-3.34q.508-.423,1.011-.877,5.073,1.69,10.249,3c.312.081.631.158.948.237l.47.116q.345.084.685.163l.067.016c.529.13,1.064.253,1.588.371.324.074.651.145.972.214.814.181,1.69.363,2.668.556,1.086.218,2.2.43,3.429.649l.207.034c.606.1,1.21.2,1.814.3.72.119,1.44.23,2.168.333.022,0,.045.007.069.01.722.1,1.448.206,2.176.3.679.087,1.355.173,2.038.253,3.695.432,7.467.73,11.218.885.618.023,1.231.047,1.838.063.624.021,1.243.032,1.855.042s1.234.016,1.851.02h.557a147.3,147.3,0,0,0,33.5-3.862l.525-.124c.406-.094.809-.189,1.218-.292l1.365-.347q1.1-.277,2.194-.579l1.706-.48a7.059,7.059,0,0,1,1.948-.281,6.449,6.449,0,0,1,.927.066c.14.02.28.044.415.077l.055.012a5.251,5.251,0,0,1,.665.182l.167.061a6.627,6.627,0,0,1,1.543.807,7.267,7.267,0,0,1,2.026,2.2,6.806,6.806,0,0,1,.956,3.754,6.652,6.652,0,0,1-.818,2.894c-.041.084-.091.169-.132.24-.057.093-.114.187-.189.3-.677,1.032-1.412,2.118-2.248,3.319q-.573.823-1.155,1.634c-1.141,1.589-2.353,3.2-3.6,4.8-.913,1.164-1.733,2.179-2.509,3.109a144.85,144.85,0,0,1-12.113,12.919l-.075.071c-.419.394-.84.788-1.257,1.171l-.527.485" transform="translate(-3226.309 1845.715)" fill="#ffe285"/></g><g transform="translate(16.013 0)"><path d="M786.448-4650.722h0m190.171,218.432-.01.006.01-.006m-36.487,18.8-.006,0,.006,0m-34.246,7.352h0m-7.249.461h0m-5.856.1h.048c.084,0,.167.005.248,0l.564,0c.071,0,.145,0,.217,0,.223,0,.457,0,.691-.007h.064c.115,0,.228,0,.346,0h.123l.068-.008.105,0c.117,0,.236,0,.35,0,.145,0,.284,0,.421-.011l.06,0c.213,0,.421,0,.628-.014l.159,0c.091,0,.183,0,.274-.007l.171-.005c.32-.006.624-.017.93-.028l.534-.025c.231-.007.461-.017.689-.027l.385-.017c.177-.007.372-.019.564-.032l.068,0h.07l.062,0,.111-.007c.252-.008.5-.022.753-.036l.7-.048c.391-.022.759-.045,1.122-.073.222-.017.447-.034.665-.048l.5-.039c.479-.04.959-.081,1.438-.123h0l.773-.14.062.058.147-.014c.842-.078,1.744-.173,2.767-.291q.93-.105,1.852-.228c.344-.044.685-.089,1.027-.139l.052-.006c.107-.013.219-.027.328-.045l.086-.011c.075-.008.149-.019.224-.032l.05-.006q.444-.063.882-.129l.085-.013c.461-.067.912-.136,1.361-.208.431-.065.84-.135,1.252-.2l.086-.012c.034,0,.069-.009.1-.017l.048-.008c.515-.088,1.029-.178,1.546-.273l.36-.066c.383-.07.767-.139,1.152-.215.282-.051.538-.1.8-.157l.087-.017q.372-.071.739-.146l.153-.035c.495-.1.993-.2,1.484-.312,1.325-.281,2.688-.6,4.186-.967,1.289-.318,2.35-.6,3.334-.87l.451-.125q.551-.151,1.1-.306c.1-.027.173-.045.24-.067l1.663-.492q.733-.221,1.46-.445c.3-.087.566-.176.836-.265l.046-.016c.511-.158,1.017-.327,1.522-.5l.062-.019c.137-.039.266-.085.4-.132.378-.125.713-.24,1.053-.355l.534-.187q.656-.222,1.3-.458l.044-.016c.1-.033.207-.069.308-.111l.61-.224c.429-.158.856-.315,1.285-.479.179-.064.33-.12.477-.178.538-.2,1.043-.4,1.548-.6l.346-.137c.272-.106.542-.211.809-.324.2-.078.352-.142.513-.208l.121-.049c.107-.043.213-.084.318-.13l.173-.072c.169-.069.338-.139.507-.211.487-.2.948-.4,1.4-.6l.048-.019c.133-.054.266-.11.4-.173l.055-.024c.4-.167.793-.346,1.186-.524s.729-.327,1.079-.488l.987-.454c.119-.051.207-.094.3-.139l.751-.354.475-.226c.062-.028.1-.048.137-.067l.065-.031c.461-.222.924-.443,1.377-.671l.433-.217c.274-.135.538-.268.8-.4l.447-.227c.274-.141.546-.28.819-.423.149-.077.266-.139.383-.2l.077-.042c.342-.175.654-.34.968-.506l.185-.1c.129-.069.258-.139.385-.213l.046-.025c.411-.221.828-.444,1.242-.673l.29-.159c.3-.165.616-.344.93-.522.04-.022.085-.049.133-.074l.185-.1c.1-.059.2-.115.3-.176l.064-.037c.238-.131.471-.268.705-.4s.435-.25.646-.376c.127-.077.256-.155.388-.226.04-.025.075-.046.109-.065.55-.325,1.1-.652,1.643-.991.234-.14.441-.266.642-.391l.05-.03c.316-.2.636-.393.956-.6l.147-.092c.481-.3.958-.605,1.434-.914.064-.041.123-.078.183-.121l.141-.09a3,3,0,0,0,.258-.167l.687-.451c.216-.142.439-.287.654-.438l.076-.05c.167-.1.334-.217.495-.328.268-.183.521-.355.765-.527l.048-.031c.1-.064.2-.131.294-.2l.56-.386c.217-.151.431-.3.644-.454l.513-.36c.276-.2.526-.375.771-.553l.113-.083.55-.4c.123-.086.226-.161.326-.236,2.164-1.583,4.3-3.243,6.359-4.941,1-.817,2.034-1.691,3.256-2.753.459-.406.928-.819,1.395-1.238.512-.456,1.017-.918,1.518-1.377.417-.384.838-.778,1.258-1.172l.075-.07a145.363,145.363,0,0,0,12.113-12.918c.775-.93,1.6-1.946,2.509-3.11,1.245-1.593,2.457-3.208,3.6-4.8q.581-.811,1.154-1.634c.836-1.2,1.572-2.287,2.249-3.319.073-.111.131-.205.189-.3.042-.071.089-.156.133-.24a6.7,6.7,0,0,0,.818-2.894,6.819,6.819,0,0,0-.958-3.754,7.251,7.251,0,0,0-2.026-2.2,6.608,6.608,0,0,0-1.542-.807l-.167-.06a5.061,5.061,0,0,0-.667-.182l-.054-.013c-.137-.032-.276-.058-.415-.077a6.826,6.826,0,0,0-2.875.214l-1.7.48q-1.1.3-2.2.58l-1.365.346c-.409.1-.812.2-1.218.292l-.524.124a147.354,147.354,0,0,1-33.5,3.862c-.185,0-.37,0-.556,0-.62,0-1.238-.006-1.852-.019s-1.232-.021-1.856-.042c-.606-.016-1.22-.041-1.838-.063-3.751-.154-7.523-.453-11.219-.885-.681-.08-1.359-.166-2.036-.252-.729-.094-1.454-.2-2.177-.3-.022,0-.046-.006-.07-.011-.727-.1-1.446-.215-2.166-.333-.606-.1-1.21-.2-1.816-.3l-.207-.035c-1.228-.219-2.344-.431-3.429-.649-.977-.193-1.854-.375-2.668-.556-.32-.07-.648-.14-.971-.215-.525-.119-1.059-.241-1.587-.372l-.067-.015-.683-.163-.471-.116c-.318-.079-.636-.157-.95-.237a146.681,146.681,0,0,1-23.743-8.252,148.435,148.435,0,0,1-74.051-73.232,145.927,145.927,0,0,1-13.614-63.436l0-.342c0-.208,0-.419.008-.629.009-.5.022-.99.035-1.482.028-.95.058-1.893.1-2.843.032-.7.07-1.421.118-2.136.037-.632.078-1.27.13-1.909.007-.147.02-.294.034-.441.032-.446.072-.919.113-1.395.025-.317.056-.65.09-.979.045-.527.1-1.073.159-1.617l.025-.245c.046-.45.095-.879.146-1.311l.081-.708c.13-1.09.289-2.289.482-3.634.07-.5.145-1,.226-1.506.071-.47.149-.958.233-1.442.458-2.792,1.01-5.618,1.636-8.392.112-.495.224-.983.342-1.473.178-.772.373-1.566.573-2.354.113-.456.228-.908.35-1.361.184-.715.382-1.442.588-2.171.041-.153.084-.313.117-.481a6.831,6.831,0,0,0-3.6-7.509,6.755,6.755,0,0,0-.76-.34l-.306-.1a6.522,6.522,0,0,0-3.852-.061l-.048.014-.083.028-.252.083c-.032.01-.063.018-.1.03l-.134.053c-.058.023-.117.046-.175.071l-.1.044c-.076.034-.15.063-.225.1l-.086.043-.082.043-.042.022a6.42,6.42,0,0,0-.6.358c-.467.312-.935.624-1.394.938-.994.675-1.893,1.3-2.745,1.907-1.45,1.038-2.773,2.019-4.043,2.995-.734.564-1.462,1.13-2.183,1.71-.676.542-1.352,1.089-2.017,1.639-1.163.961-2.324,1.95-3.451,2.942-3.309,2.918-6.513,6.013-9.523,9.2l0,0c-.455.479-.909.966-1.356,1.45-.877.952-1.759,1.941-2.625,2.937-.606.693-1.2,1.385-1.787,2.088-1.384,1.655-2.725,3.328-3.983,4.971-.265.344-.522.684-.776,1.025-1.186,1.575-2.393,3.254-3.6,5q-.828,1.207-1.634,2.434c-2.246,3.415-4.361,6.952-6.288,10.516-.248.453-.488.9-.721,1.349-.981,1.858-1.91,3.714-2.766,5.523-.223.466-.44.925-.651,1.391-.084.177-.149.317-.212.461l-.123.268c-.126.28-.253.56-.376.836-.914,2.044-1.791,4.14-2.61,6.23-.133.332-.253.65-.374.968-.242.624-.473,1.236-.7,1.847l-.4,1.1c-.854,2.376-1.657,4.821-2.388,7.269-.153.506-.3,1-.443,1.505l-.335,1.18c-.052.187-.1.374-.153.56-.122.434-.229.845-.338,1.258l-.078.294c-.137.511-.266,1.023-.395,1.538s-.256,1.033-.378,1.547-.247,1.043-.367,1.562-.231,1.034-.343,1.557c-.117.541-.23,1.073-.34,1.607l-.075.375c-.078.387-.154.774-.229,1.166l-.02.1c-.1.522-.2,1.049-.294,1.574-.179.995-.355,2.036-.525,3.1-.153.973-.309,2.026-.473,3.218-.149,1.1-.285,2.2-.4,3.236-.167,1.488-.3,2.855-.415,4.179-.106,1.269-.2,2.632-.29,4.166a144.509,144.509,0,0,0,111.27,148.82l.431.1q.564.131,1.129.257c.523.117,1.045.232,1.566.342l.3.063c.428.089.853.177,1.28.264l.527.1c.351.069.7.137,1.056.2.4.079.785.148,1.174.217l.428.076c.524.1,1.053.188,1.581.272l.176.029.226.038c.334.054.707.113,1.078.169l.327.051c.234.037.469.073.7.107l.664.1.037-.037.974.178c.433.059.88.117,1.328.175.205.026.406.05.6.074l.349.043c.251.029.509.061.77.088.284.034.54.064.795.093l.142.014c.234.025.469.049.706.071l.092.012c.083.012.167.02.259.026l.058.005c.293.031.592.063.888.091.174.017.3.029.439.037l.083.008c.241.026.478.049.722.065l.91.078c.429.033.874.067,1.321.1l1.058.071c.563.036,1.13.068,1.694.1l.076,0h.028l.094,0c.62.036,1.243.063,1.87.086.418.016.836.029,1.252.042l1.254.031c.4.007.809.015,1.212.019l.32,0h.384c.258,0,.512.009.761,0h.047m.209,3.126c-.081,0-.162,0-.244,0-.271,0-.542,0-.821,0h-.342l-.356,0c-.4,0-.815-.012-1.226-.019l-1.295-.032c-.424-.013-.849-.026-1.273-.042-.628-.024-1.253-.05-1.875-.086-.1,0-.192,0-.283-.013l-.982-.054-.008.008-1.778-.125c-.448-.031-.9-.065-1.352-.1l-.9-.078c-.245-.016-.51-.041-.778-.069-.164-.01-.323-.024-.487-.041-.331-.032-.634-.063-.929-.095-.151-.011-.293-.025-.434-.045-.236-.022-.469-.046-.7-.07l-.118-.011c-.282-.032-.566-.065-.852-.1-.246-.027-.517-.058-.789-.09l-.343-.041c-.214-.025-.427-.051-.642-.08l-.822-.107-.031.031-.855-.153c-.451-.059-.895-.125-1.338-.191-.24-.034-.489-.073-.735-.111l-.316-.049c-.378-.057-.763-.119-1.142-.18l-.173-.029c-.075-.012-.15-.023-.226-.037-.513-.083-1.062-.179-1.608-.277l-.106-.02-.314-.057c-.406-.072-.809-.144-1.21-.223-.349-.064-.711-.136-1.071-.207l-.531-.1c-.444-.09-.875-.18-1.309-.269l-.305-.063c-.537-.113-1.072-.231-1.606-.35-.385-.085-.77-.175-1.155-.264l-.436-.1a148.111,148.111,0,0,1-84.211-55.245,147.825,147.825,0,0,1-29.466-96.791c.09-1.563.187-2.952.3-4.251.114-1.352.253-2.747.424-4.266.12-1.062.258-2.177.411-3.309.168-1.214.326-2.287.483-3.284.174-1.084.353-2.146.535-3.159.1-.534.2-1.07.3-1.607l.02-.1c.076-.4.155-.794.234-1.192L748-4580c.114-.556.229-1.1.348-1.648s.23-1.067.352-1.6.245-1.061.374-1.591.253-1.052.386-1.58.266-1.057.4-1.577l.076-.287c.113-.431.226-.86.346-1.288.046-.174.1-.373.157-.574l.341-1.2c.142-.508.3-1.024.454-1.545.745-2.5,1.566-5,2.438-7.424l.4-1.107c.234-.642.473-1.271.718-1.9.123-.324.251-.662.386-1,.831-2.124,1.728-4.265,2.661-6.352.124-.279.253-.564.382-.85l.125-.273c.075-.166.15-.33.228-.493.2-.449.429-.927.658-1.409.873-1.845,1.823-3.743,2.821-5.632.239-.459.49-.927.744-1.393,1.966-3.633,4.128-7.249,6.422-10.737q.823-1.252,1.671-2.488c1.229-1.783,2.462-3.5,3.666-5.095.259-.351.53-.708.8-1.063,1.28-1.671,2.649-3.38,4.063-5.072.6-.719,1.21-1.428,1.827-2.134.881-1.013,1.785-2.024,2.681-3,.457-.5.921-.993,1.386-1.484,3.076-3.258,6.349-6.421,9.729-9.4,1.153-1.015,2.338-2.027,3.525-3.006.676-.56,1.365-1.119,2.053-1.668.736-.592,1.481-1.17,2.232-1.75,1.3-1,2.651-2,4.133-3.06.873-.622,1.789-1.259,2.8-1.949.468-.318.943-.636,1.413-.95a9.588,9.588,0,0,1,.877-.522c.08-.043.16-.087.241-.125.128-.067.254-.124.384-.181a1.989,1.989,0,0,1,.2-.087c.068-.028.135-.054.2-.08l.13-.052c.131-.051.224-.082.317-.109l.152-.052c.076-.026.151-.051.228-.073l.067-.021a9.629,9.629,0,0,1,5.659.09c.029.008.071.02.112.034l.3.1a10.275,10.275,0,0,1,1.146.508,9.9,9.9,0,0,1,5.221,10.909c-.044.22-.1.451-.166.685-.2.717-.395,1.423-.577,2.132-.121.45-.232.884-.341,1.325-.195.771-.385,1.542-.561,2.313-.119.493-.227.965-.336,1.444-.613,2.712-1.153,5.479-1.6,8.221-.083.477-.157.94-.227,1.407-.081.5-.151.978-.219,1.462-.19,1.325-.346,2.5-.476,3.594l-.007.061c0,.04-.009.078-.015.115l-.056.488c-.048.417-.1.833-.138,1.252l-.026.251c-.058.548-.113,1.075-.159,1.6-.033.331-.062.644-.086.952-.042.473-.08.93-.114,1.39-.013.137-.023.245-.028.35l0,.058c-.051.628-.091,1.252-.128,1.878q-.066,1.057-.114,2.089c-.045.934-.075,1.858-.1,2.786-.013.481-.026.966-.035,1.448,0,.2-.005.4-.007.606l0,.348a142.82,142.82,0,0,0,13.326,62.087,145.31,145.31,0,0,0,72.493,71.694,143.4,143.4,0,0,0,23.242,8.078c.31.079.616.156.922.23l.473.118c.214.051.431.1.65.153l.083.02c.525.129,1.039.248,1.55.361.318.074.634.143.95.211.8.176,1.649.354,2.609.543,1.069.215,2.163.422,3.351.635l.193.032q.9.152,1.8.3c.707.115,1.413.226,2.124.327h0l.068.008c.7.1,1.409.2,2.114.292.664.084,1.329.169,2,.248,3.618.423,7.313.716,10.978.867.6.022,1.208.046,1.812.063s1.218.03,1.82.04,1.206.017,1.8.019a144.841,144.841,0,0,0,33.336-3.778l.529-.124c.389-.092.779-.183,1.166-.28l1.359-.346q1.07-.27,2.126-.562l1.7-.479a9.9,9.9,0,0,1,4.164-.3c.24.034.459.076.667.125a8.914,8.914,0,0,1,1.254.359l.34.133a9.745,9.745,0,0,1,1.937,1.062,10.389,10.389,0,0,1,2.912,3.162,9.95,9.95,0,0,1,1.389,5.478,9.731,9.731,0,0,1-1.17,4.2c-.058.117-.143.268-.229.412s-.169.278-.26.413c-.682,1.04-1.434,2.149-2.287,3.375q-.587.841-1.182,1.669c-1.166,1.625-2.4,3.274-3.677,4.9-.936,1.189-1.772,2.228-2.565,3.18a148.53,148.53,0,0,1-12.375,13.2l-.079.074c-.425.4-.852.8-1.279,1.194-.516.473-1.033.944-1.552,1.406-.467.42-.942.839-1.419,1.259-1.256,1.09-2.31,1.983-3.33,2.817-2.1,1.732-4.287,3.429-6.482,5.038-.131.1-.258.189-.389.281l-.644.468c-.256.186-.517.37-.775.553-.036.028-.083.06-.137.095l-.358.254c-.232.167-.461.326-.689.486l-.509.35c-.131.095-.268.187-.405.276-.248.175-.5.349-.761.523-.2.138-.391.266-.582.386-.234.164-.473.321-.709.477l-.618.4c-.137.1-.276.187-.419.272-.083.057-.167.11-.248.163-.485.313-.972.627-1.464.933a1.982,1.982,0,0,1-.2.122c-.31.2-.62.39-.93.581l-.052.032c-.219.135-.439.271-.661.4-.538.336-1.113.679-1.689,1.02l-.044.024c-.054.033-.1.061-.147.086-.085.047-.175.1-.264.155-.232.14-.463.271-.691.4s-.485.285-.741.426c-.117.07-.236.138-.356.207l-.161.092c-.018.01-.062.036-.105.059l-.056.032c-.326.183-.652.368-.979.549l-.286.156c-.4.221-.82.448-1.236.671-.149.085-.3.166-.449.246l-.183.1c-.346.183-.672.355-1,.523l-.048.025c-.143.077-.29.156-.437.228-.248.134-.532.278-.817.424l-.465.236c-.274.138-.548.277-.822.411l-.415.209c-.475.238-.954.467-1.43.7-.071.037-.151.076-.238.117l-.451.212c-.246.118-.491.235-.737.35-.107.053-.238.116-.373.174l-.958.439c-.362.168-.721.331-1.085.492-.421.19-.831.375-1.242.549-.173.081-.344.154-.521.224q-.7.305-1.407.6c-.165.071-.354.149-.542.228l-.141.059c-.109.047-.242.1-.378.155l-.091.036c-.159.068-.338.141-.525.215-.258.108-.552.224-.85.339l-.1.038c-.056.022-.107.044-.161.064l-.058.022c-.542.214-1.063.418-1.589.617-.155.063-.34.131-.522.195-.407.157-.846.318-1.285.48l-.308.113c-.072.028-.163.065-.274.1-.133.053-.27.1-.405.146-.437.16-.874.314-1.315.463l-.089.034c-.058.022-.1.037-.129.046l-.35.118c-.348.119-.7.238-1.049.354-.149.053-.33.115-.515.169-.516.172-1.033.343-1.552.5-.3.1-.6.2-.91.289-.366.114-.749.23-1.136.348l0,0-1.969.583c-.087.027-.207.061-.33.092-.344.1-.717.2-1.095.305l-.443.123c-1.013.282-2.1.566-3.419.893-1.534.379-2.93.7-4.271.985-.477.108-.979.214-1.482.314-.077.021-.153.037-.226.049-.244.051-.493.1-.741.146l-.065.014c-.264.054-.546.111-.831.163-.377.075-.775.146-1.174.218l-.354.065c-.518.1-1.041.187-1.562.276-.1.018-.2.034-.3.047-.417.07-.832.141-1.254.2-.451.073-.918.145-1.391.214l-.077.012c-.3.044-.594.088-.892.129-.119.02-.234.036-.352.05-.135.021-.274.04-.409.055-.352.052-.7.1-1.055.143-.628.082-1.263.162-1.9.234-1.045.121-1.969.219-2.823.3l-1.609.159-.01-.008-.9.074-1.017.085-.008-.009-.111.008c-.387.029-.775.055-1.158.075l-.731.05c-.258.014-.517.028-.773.037-.1.01-.2.016-.31.016-.191.013-.385.023-.58.033l-.389.016c-.227.01-.455.02-.683.027-.054,0-.113.008-.171.009l-.393.017c-.32.012-.646.024-.974.029l-.135,0c-.1,0-.208.006-.316.008-.04,0-.091,0-.121,0-.219.01-.437.013-.66.016-.173.008-.35.012-.521.014-.105,0-.22,0-.336,0s-.2.007-.27.006c-.143,0-.284,0-.429,0-.252.007-.509.011-.767.009h-.081l-.04,0h-.546l-.17,0" transform="translate(-744.993 4675.26)" fill="#371a45"/></g><g transform="translate(46.931 35.393)"><path d="M1227.138-4112.906a39.677,39.677,0,0,0,3.509-12.695c1.591-14.272-3.859-26.975-12.175-28.373s-16.347,9.038-17.938,23.31,3.859,26.975,12.175,28.374l14.43-10.616" transform="translate(-1200.258 4154.099)" fill="#ffd243"/></g><g transform="translate(45.486 34.875)"><path d="M1196.309-4160.586c-7.446,2.287-11.165,10.5-13.26,17.424a25.756,25.756,0,0,0-1.217,7.477c-.11,8.584,1.843,22.649,11.125,25.83a.469.469,0,0,1,.31.586.47.47,0,0,1-.468.33,9.454,9.454,0,0,1-4.036-1.144,13.377,13.377,0,0,1-3.354-2.582c-6.537-7.226-7.468-18.066-5.544-27.242,1.543-6.528,4.236-13.016,9.067-17.814a14.92,14.92,0,0,1,7.1-3.987.578.578,0,0,1,.281,1.12" transform="translate(-1178.979 4161.718)" fill="#371a45"/></g><g transform="translate(53.404 43.6)"><path d="M1296.314-4021a28.363,28.363,0,0,0-.161,12.186c.941,4.324,2.966,7.807,5.776,9.287,5.207,2.745,11.136-2.411,13.242-11.519,2.013-8.692-.186-17.845-4.921-21.053a6.854,6.854,0,0,0-.694-.42c-5.207-2.745-11.137,2.411-13.242,11.519" transform="translate(-1295.568 4033.253)" fill="#ffa92c"/></g><g transform="translate(54.914 54.668)"><path d="M1332.934-3858.653c-1.263-7.411-5.6-12.547-9.677-11.473s-6.366,7.95-5.1,15.362,5.6,12.546,9.678,11.471,6.366-7.95,5.1-15.36" transform="translate(-1317.807 3870.268)" fill="#ffd243"/></g><g transform="translate(52.112 43.422)"><path d="M1294.72-4007.951a28.073,28.073,0,0,0,.847-17.176c-1.309-4.9-5.5-10.435-10.605-6.048-5.843,5.356-7.149,16.708-4.472,23.928.981,2.585,2.7,5.214,5.505,5.947a.465.465,0,0,1,.347.566.467.467,0,0,1-.5.35,6.9,6.9,0,0,1-2.355-.709,11.555,11.555,0,0,1-4.781-5.383,26.487,26.487,0,0,1,1.081-23.129c1.74-2.944,4.336-5.753,8.032-6.2,3.79-.509,7.1,2.3,8.686,5.4,3.616,6.954,2.979,16.2-.742,22.961a.579.579,0,0,1-1.04-.5" transform="translate(-1276.55 4035.868)" fill="#371a45"/></g><g transform="translate(103.949 118.238)"><path d="M2089.806-2928.68c-8.136-15.01-49.945,4.459-49.952,12.647-.013,15.214,18.074,64.2,54.568,65.726,30.644,1.277,49.882-30.023,40.122-44.412-8.857-13.058-25-18.252-35.545-25.076l-9.193-8.885" transform="translate(-2039.854 2934.2)" fill="#fff"/></g><g transform="translate(103.948 118.239)"><path d="M2130.911-2868.36a42.5,42.5,0,0,1-36.51,18.077c-21.419-.895-36.5-18.142-45.3-35.317a92.953,92.953,0,0,1-8.568-24.014,35.386,35.386,0,0,1-.7-6.4c.007-8.186,41.815-27.655,49.953-12.643l2.677,2.585,6.517,6.3c10.545,6.825,26.687,12.019,35.545,25.076,4.585,6.756,2.771,17.244-3.615,26.335" transform="translate(-2039.833 2934.176)" fill="#fff"/></g><g transform="translate(103.948 118.239)"><path d="M2061.513-2903.76c-12.459-.17-18.474-3.709-20.979-5.854a35.392,35.392,0,0,1-.7-6.4c.008-8.185,41.815-27.654,49.953-12.643l2.677,2.585c.611,9.2-7.192,22.633-30.949,22.309" transform="translate(-2039.832 2934.176)" fill="#e8e8e8"/></g><g transform="translate(105.068 141.408)"><path d="M2072.527-2585.983c-8.977-.771-13.828-3.425-16.2-5.3l6.232-1.738a24.783,24.783,0,0,1,9.967,7.036" transform="translate(-2056.328 2593.02)" fill="#e8e8e8"/></g><g transform="translate(113.217 161.235)"><path d="M2258.13-2278.245a42.505,42.505,0,0,1-36.51,18.077c-21.418-.894-36.5-18.142-45.3-35.317l8.808-.407s5.88,13.7,12.7,15.414,18.737-21.135,19.109-20.579,17.465,4.233,14.61,8.594-7.971.716-11.579,3.719c-3.785,3.154-5.275,14.164-.458,16.626,5.913,3.019,9.145-1.7,12.517-6.339,3.822-5.269,21.742-6.669,26.1.211" transform="translate(-2176.321 2301.066)" fill="#e8e8e8"/></g><g transform="translate(102.496 116.775)"><path d="M2068.585-2948.056c-4.886-8.517-21.475-3.637-28.813-.749-5.582,2.245-14.773,6.6-18.044,11.622a2.273,2.273,0,0,0-.359,1.249,40.041,40.041,0,0,0,1.077,7.873c4.357,17.9,14.1,36.357,28.955,47.641a40.729,40.729,0,0,0,61.236-13.851c3.039-6.138,4.666-14.184.423-20.087-.273-.416-.874-1.2-1.177-1.594-8.462-10.987-22.355-15.229-33.22-23.3a.731.731,0,0,1,.785-1.224c12.8,6.583,27.426,12.112,36.081,24.389,8.217,11.767-.978,28.586-10.607,36.615-19.015,16.1-44.648,13.45-61.749-4.04-11.828-12.016-19.662-27.6-23.583-43.912a42.7,42.7,0,0,1-1.13-8.488,4.75,4.75,0,0,1,.193-1.449c.893-2.635,3.154-4.476,5.2-6.113a68.454,68.454,0,0,1,22.875-10.664c5.565-1.377,11.366-2.339,17.1-.827a11.624,11.624,0,0,1,7.317,5.524,1.454,1.454,0,0,1-2.557,1.386" transform="translate(-2018.459 2955.733)" fill="#371a45"/></g><g transform="translate(175.542 137.609)"><path d="M3120.673-2617.651s9.876-9.311,4.811-21.567c-5.711-13.822-25.061-12.1-30.858-.021-5.044,10.506,26.047,21.588,26.047,21.588" transform="translate(-3094.072 2648.952)" fill="#fff"/></g><g transform="translate(175.542 137.609)"><path d="M3126.218-2627.133a22.783,22.783,0,0,1-5.551,9.484s-31.086-11.085-26.046-21.59a17.427,17.427,0,0,1,12.186-9.294c7.255-1.56,15.32,1.2,18.674,9.317a18.085,18.085,0,0,1,.738,12.084" transform="translate(-3094.067 2648.951)" fill="#fff"/></g><g transform="translate(175.543 138.026)"><path d="M3126.224-2621.418a22.774,22.774,0,0,1-5.55,9.483s-31.086-11.084-26.046-21.591a17.427,17.427,0,0,1,12.185-9.294c2.705.982,5.644,3.179,8.524,7.429,2.8,4.127,4.116,13.645,10.887,13.973" transform="translate(-3094.075 2642.82)" fill="#e8e8e8"/></g><g transform="translate(174.085 136.154)"><path d="M3090.694-2667.465a16.407,16.407,0,0,0-14.759,8.887,4.153,4.153,0,0,0-.023,3.544c2.662,6.469,17.727,13.24,24.37,15.723,1.983-2.2,7.806-9.763,3.856-19.321a13.9,13.9,0,0,0-12.975-8.828c-.157,0-.314-.007-.469-.007m10.328,31.515-.839-.3c-.941-.336-23.115-8.332-26.96-17.677a7,7,0,0,1,.09-5.91,19.359,19.359,0,0,1,17.386-10.538c.181,0,.363,0,.545.008a16.908,16.908,0,0,1,15.583,10.625c5.386,13.033-5.05,23.08-5.157,23.181l-.647.61" transform="translate(-3072.614 2670.374)" fill="#371a45"/></g><g transform="translate(73.919 109.091)"><path d="M1641.5-3007.69s-27.383,9.682-38.445-4.276c-13.225-16.685,1.074-47.771,8.331-55.168,8.777-8.944,16.99,19.244,16.99,19.244l-2.788,13.952,9.442-2.632s13.044,4.6,13.044,15.573-6.574,13.308-6.574,13.308" transform="translate(-1597.651 3068.887)" fill="#fff"/></g><g transform="translate(73.92 109.09)"><path d="M1648.09-3021.006a17.461,17.461,0,0,1-2.319,9.43,9.356,9.356,0,0,1-4.255,3.88s-27.383,9.68-38.444-4.276c-13.226-16.685,1.072-47.773,8.33-55.168,8.775-8.946,16.99,19.244,16.99,19.244l-2.451,12.262-.339,1.691,9.444-2.634s13.043,4.6,13.043,15.572" transform="translate(-1597.665 3068.895)" fill="#fff"/></g><g transform="translate(105.068 141.408)"><path d="M2072.527-2585.983c-8.977-.771-13.828-3.425-16.2-5.3l6.232-1.738a24.783,24.783,0,0,1,9.967,7.036" transform="translate(-2056.328 2593.02)" fill="#e8e8e8"/></g><g transform="translate(73.919 109.09)"><path d="M1645.771-3011.576a9.355,9.355,0,0,1-4.255,3.88s-27.383,9.68-38.444-4.277c-13.226-16.685,1.072-47.773,8.331-55.168,8.775-8.946,16.99,19.244,16.99,19.244l-2.451,12.262c-3.688-1.1-16.815-4.178-21.215,6.3-4.84,11.531,7.168,25.223,41.045,17.755" transform="translate(-1597.665 3068.895)" fill="#e8e8e8"/></g><g transform="translate(72.461 107.652)"><path d="M1621.86-3026.412c-10.016,3.433-22.934,5.626-32.921,1.111-5.347-2.379-9.23-7.449-11.039-12.925-3.546-10.8-1.084-22.555,2.812-32.875,2.089-5.316,6.432-14.564,11.016-17.96,9.256-5.776,16.029,14.683,18.042,21.011a1.42,1.42,0,0,1,.029.7l-2.789,13.951-1.817-1.687,9.443-2.632a1.453,1.453,0,0,1,1.79,1.011,1.452,1.452,0,0,1-1.01,1.79l-9.443,2.632a1.454,1.454,0,0,1-1.792-1.01,1.472,1.472,0,0,1-.024-.675l2.788-13.951.03.691a68.087,68.087,0,0,0-6.192-14.635c-1.361-2.1-3.494-5.484-6.173-5.289a4.5,4.5,0,0,0-2.52,1.65,40.609,40.609,0,0,0-5.374,8.179c-5.731,11.385-10.045,25.652-6.068,38.156a18.455,18.455,0,0,0,9.551,11.186c9.271,4.18,21.432,2.26,30.932-.482a1.091,1.091,0,0,1,.727,2.057" transform="translate(-1576.187 3090.077)" fill="#371a45"/></g><g transform="translate(82.484 141.622)"><path d="M1727.607-2558.726a1.456,1.456,0,0,1-.751-.207c-2.394-1.444-3.581-5.965-2.882-10.993.5-3.586,3.335-15.616,18.983-19.891a1.457,1.457,0,0,1,1.786,1.021,1.454,1.454,0,0,1-1.019,1.786c-13.551,3.7-16.311,13.459-16.869,17.483-.6,4.334.487,7.491,1.5,8.1a1.454,1.454,0,0,1,.5,2,1.454,1.454,0,0,1-1.246.7" transform="translate(-1723.775 2589.869)" fill="#371a45"/></g><g transform="translate(76.039 53.649)"><path d="M1720.827-3841.492a45.025,45.025,0,0,1-5.2,22.35,46.827,46.827,0,0,1-2.525,4.225c-.448.67-.923,1.333-1.415,1.994a46.125,46.125,0,0,1-4.839,5.481,46.029,46.029,0,0,1-4.7,3.985,46.1,46.1,0,0,1-6.211,3.869q-1.18.607-2.384,1.149a46.282,46.282,0,0,1-46.225-4.728,44.982,44.982,0,0,1-9.28-63.546,46.259,46.259,0,0,1,10.152-9.905c.439-.319.889-.626,1.346-.924q1.821-1.206,3.734-2.229a46.612,46.612,0,0,1,9.217-3.715,46.821,46.821,0,0,1,9.723-1.69q1.567-.105,3.141-.1a45.581,45.581,0,0,1,4.721.248,45.565,45.565,0,0,1,22.328,8.563,44.75,44.75,0,0,1,18.423,34.976" transform="translate(-1628.879 3885.279)" fill="#fff"/></g><g transform="translate(75.886 53.503)"><path d="M1673.189-3887.137c-1,0-2.036.034-3.067.1a46.707,46.707,0,0,0-9.693,1.683,46.542,46.542,0,0,0-9.188,3.7c-1.265.677-2.517,1.424-3.722,2.222-.485.316-.924.617-1.34.92a46.088,46.088,0,0,0-10.121,9.875,44.9,44.9,0,0,0-8.643,33.812,44.429,44.429,0,0,0,17.891,29.528,46.246,46.246,0,0,0,46.078,4.713c.8-.361,1.6-.747,2.378-1.146a46.238,46.238,0,0,0,6.192-3.858,45.922,45.922,0,0,0,4.687-3.971,46.429,46.429,0,0,0,4.823-5.465c.531-.712.991-1.364,1.409-1.989a46.133,46.133,0,0,0,2.519-4.212,45.051,45.051,0,0,0,5.188-22.275,44.48,44.48,0,0,0-18.364-34.863,45.609,45.609,0,0,0-22.257-8.537,46.241,46.241,0,0,0-4.706-.245Zm-.826,90.915a46.121,46.121,0,0,1-27.23-8.831,44.717,44.717,0,0,1-18.008-29.722,45.2,45.2,0,0,1,8.7-34.03,46.443,46.443,0,0,1,10.184-9.937c.419-.3.862-.607,1.351-.928,1.21-.8,2.471-1.554,3.744-2.233a46.7,46.7,0,0,1,9.247-3.727,46.785,46.785,0,0,1,9.754-1.694c1.058-.072,2.131-.109,3.15-.105a46.135,46.135,0,0,1,4.737.248,45.9,45.9,0,0,1,22.4,8.591,44.765,44.765,0,0,1,18.485,35.09,45.359,45.359,0,0,1-5.222,22.422,46.864,46.864,0,0,1-2.533,4.239c-.421.628-.884,1.283-1.419,2a46.5,46.5,0,0,1-4.854,5.5,46.164,46.164,0,0,1-4.718,4,46.55,46.55,0,0,1-6.231,3.881c-.779.4-1.584.791-2.392,1.153a46.859,46.859,0,0,1-19.141,4.086" transform="translate(-1626.625 3887.43)" fill="#371a45"/></g><g transform="translate(76.042 85.142)"><path d="M1647.354-3370.918a46.273,46.273,0,0,0,46.225,4.729q1.206-.539,2.385-1.147a46.277,46.277,0,0,0,6.211-3.869,46.161,46.161,0,0,0,4.7-3.983,46.24,46.24,0,0,0,4.841-5.483c.489-.663.964-1.324,1.414-2a46.688,46.688,0,0,0,2.525-4.227,45.041,45.041,0,0,0,5.206-22.349,45.062,45.062,0,0,0-2.077-12.292,45,45,0,0,1-5.223,21.3,45.935,45.935,0,0,1-2.523,4.227c-.449.67-.924,1.333-1.414,1.994a46.556,46.556,0,0,1-4.838,5.483,46.819,46.819,0,0,1-4.7,3.984,46.374,46.374,0,0,1-6.211,3.867q-1.182.609-2.388,1.149a46.274,46.274,0,0,1-46.224-4.728,44.678,44.678,0,0,1-16.346-22.691,44.746,44.746,0,0,0,18.439,36.033" transform="translate(-1628.915 3421.536)" fill="#e8e8e8"/></g><g transform="translate(74.905 52.518)"><path d="M1659.724-3899.667c-.983,0-1.992.034-3,.1a45.774,45.774,0,0,0-9.49,1.649,45.654,45.654,0,0,0-8.995,3.625c-1.238.663-2.463,1.393-3.643,2.175-.476.311-.9.6-1.306.9a45.206,45.206,0,0,0-9.913,9.671,43.93,43.93,0,0,0-8.456,33.076,43.455,43.455,0,0,0,17.5,28.881,45.259,45.259,0,0,0,45.1,4.609c.784-.351,1.569-.73,2.328-1.122a45.091,45.091,0,0,0,6.057-3.773,45.011,45.011,0,0,0,4.586-3.887,45.182,45.182,0,0,0,4.724-5.35c.517-.7.969-1.333,1.377-1.945a45.2,45.2,0,0,0,2.466-4.125,44.038,44.038,0,0,0,5.076-21.79,43.5,43.5,0,0,0-17.963-34.1,44.617,44.617,0,0,0-21.778-8.353,44.919,44.919,0,0,0-4.608-.241Zm-.826,90.915a47.108,47.108,0,0,1-27.809-9.02,45.692,45.692,0,0,1-18.4-30.369,46.173,46.173,0,0,1,8.884-34.765,47.4,47.4,0,0,1,10.4-10.146c.426-.309.881-.623,1.382-.949,1.233-.816,2.519-1.583,3.819-2.28a47.833,47.833,0,0,1,9.441-3.806,47.8,47.8,0,0,1,9.957-1.728c1.08-.073,2.158-.122,3.217-.107a47.636,47.636,0,0,1,4.836.252,46.888,46.888,0,0,1,22.877,8.776,45.744,45.744,0,0,1,18.886,35.854,46.352,46.352,0,0,1-5.336,22.908,48.09,48.09,0,0,1-2.587,4.328c-.429.641-.9,1.307-1.445,2.038a47.762,47.762,0,0,1-4.96,5.62,47.593,47.593,0,0,1-4.815,4.079,47.364,47.364,0,0,1-6.363,3.965c-.8.41-1.618.8-2.442,1.175a47.841,47.841,0,0,1-19.543,4.173" transform="translate(-1612.178 3901.924)" fill="#371a45"/></g><g transform="translate(74.578 52.195)"><path d="M1655.23-3903.778c-.975,0-1.977.034-2.978.1a45.447,45.447,0,0,0-9.422,1.636,45.294,45.294,0,0,0-8.931,3.6c-1.229.657-2.445,1.383-3.615,2.158-.475.309-.9.6-1.294.889a44.814,44.814,0,0,0-9.844,9.6,43.6,43.6,0,0,0-8.394,32.832,43.12,43.12,0,0,0,17.369,28.664,44.93,44.93,0,0,0,44.773,4.576c.778-.35,1.558-.726,2.313-1.115a44.718,44.718,0,0,0,6.012-3.745,44.518,44.518,0,0,0,4.553-3.859,45.052,45.052,0,0,0,4.691-5.311c.513-.69.962-1.323,1.367-1.93a45.284,45.284,0,0,0,2.45-4.1,43.735,43.735,0,0,0,5.036-21.628,43.179,43.179,0,0,0-17.828-33.844,44.3,44.3,0,0,0-21.618-8.291,44.805,44.805,0,0,0-4.576-.239Zm-.825,90.915a47.43,47.43,0,0,1-28-9.083,46.013,46.013,0,0,1-18.531-30.585,46.491,46.491,0,0,1,8.946-35.008,47.724,47.724,0,0,1,10.472-10.219c.427-.309.886-.625,1.393-.955,1.238-.82,2.533-1.594,3.843-2.294a48.211,48.211,0,0,1,9.506-3.833,48.4,48.4,0,0,1,10.025-1.74c1.087-.073,2.174-.105,3.239-.107a48.094,48.094,0,0,1,4.87.254,47.222,47.222,0,0,1,23.036,8.836,46.077,46.077,0,0,1,19.019,36.108,46.646,46.646,0,0,1-5.373,23.071,48.062,48.062,0,0,1-2.606,4.359c-.431.643-.906,1.315-1.453,2.051a47.93,47.93,0,0,1-5,5.659,47.262,47.262,0,0,1-4.849,4.108,47.578,47.578,0,0,1-6.406,3.991c-.8.413-1.629.812-2.458,1.185a48.192,48.192,0,0,1-19.677,4.2" transform="translate(-1607.359 3906.687)" fill="#371a45"/></g><g transform="translate(90.863 58.516)"><path d="M1923.112-3763.082c-13.88,29.576-52.316,36.6-70.271,9.919-12.215-18.15-3.561-44.151,14.931-54.8,13.458-7.745,29.97-9.519,47.65,7.736,0,0,6.621,8.844,7.721,16.655a102.648,102.648,0,0,1,.837,15.606l-.868,4.88" transform="translate(-1847.164 3813.603)" fill="#371a45"/></g><g transform="translate(90.871 100.595)"><path d="M1852.952-3175.627c17.953,26.678,56.39,19.656,70.271-9.918l.174-.989c-23,19.419-57.453,19.181-76.116-7.453a33.714,33.714,0,0,0,5.671,18.36" transform="translate(-1847.281 3193.987)" fill="#220f2d"/></g><g transform="translate(84.664 52.434)"><path d="M1798.457-3900.241a44.115,44.115,0,0,0-17.225,5.946,46.135,46.135,0,0,0-21.306,29.234c-2.543,10.955-.764,21.709,5.006,30.283,6.327,9.4,15.248,15.4,25.8,17.353,11.246,2.083,23.471-.765,33.563-7.814a44.922,44.922,0,0,0,4.6-5.23c.514-.689.963-1.322,1.368-1.93a45.171,45.171,0,0,0,2.449-4.095,43.744,43.744,0,0,0,5.036-21.629,43.175,43.175,0,0,0-17.827-33.842,44.287,44.287,0,0,0-21.47-8.276m-.387,86.391a43.034,43.034,0,0,1-7.868-.715c-11.337-2.1-20.91-8.526-27.683-18.59-6.226-9.25-8.154-20.815-5.427-32.564a49.1,49.1,0,0,1,22.689-31.1,46.965,46.965,0,0,1,18.526-6.334l.148-.014.149.014a47.225,47.225,0,0,1,23.039,8.837,46.074,46.074,0,0,1,19.02,36.109,46.648,46.648,0,0,1-5.373,23.069,47.745,47.745,0,0,1-2.605,4.358c-.431.644-.907,1.315-1.454,2.051a47.985,47.985,0,0,1-5,5.659l-.176.146a49.059,49.059,0,0,1-27.989,9.072" transform="translate(-1755.885 3903.166)" fill="#371a45"/></g><g transform="translate(90.18 57.839)"><path d="M1913.739-3772.383h0m-36.075-49.809q-9.317,0-18.928,5.522a41.681,41.681,0,0,0-19.247,26.4c-2.3,9.913-.688,19.653,4.542,27.425,7.618,11.317,19.634,17.219,32.968,16.2,15.275-1.176,29.094-11.115,36.087-25.944l.843-4.742a102.855,102.855,0,0,0-.831-15.44c-1.024-7.28-7.078-15.646-7.562-16.3-8.969-8.739-18.294-13.116-27.872-13.116m-3.637,77.019c-12.6,0-23.813-6.051-31.122-16.912-5.443-8.085-7.125-18.2-4.738-28.488a43.064,43.064,0,0,1,19.892-27.275c16.878-9.713,33.182-7.076,48.463,7.836l.07.081c.275.365,6.738,9.073,7.851,16.968a104.047,104.047,0,0,1,.841,15.723l-.01.1-.883,4.967-.037.081c-7.188,15.317-21.462,25.588-37.251,26.8-1.032.079-2.059.12-3.076.12" transform="translate(-1837.109 3823.582)" fill="#371a45"/></g><g transform="translate(75.644 107.335)"><path d="M1625.3-3074.582c4.056,7.983,12.246,12.266,18.293,9.562s7.661-11.369,3.6-19.352c-.025-.051-.053-.1-.081-.152-4.081-7.886-12.208-12.094-18.214-9.409-4.672,2.089-6.7,7.734-5.508,13.875a20.961,20.961,0,0,0,1.9,5.477" transform="translate(-1623.061 3094.744)" fill="#fff"/></g><g transform="translate(75.977 117.555)"><path d="M1629.869-2934.309c4.057,7.983,12.246,12.266,18.294,9.561s7.661-11.368,3.605-19.351c-.025-.05-.054-.1-.081-.152a3.285,3.285,0,0,1-2.413,2.74c-2.7.621-9.714-2.543-9.714-2.543s-5.041,1.818-11.6,4.269a20.954,20.954,0,0,0,1.9,5.476" transform="translate(-1627.965 2944.251)" fill="#e8e8e8"/></g><g transform="translate(74.18 105.894)"><path d="M1606.492-3095.02c3.705,7.291,11.064,11.279,16.4,8.892a8.1,8.1,0,0,0,4.291-4.892c1.273-3.594.752-8.258-1.39-12.473-3.7-7.292-11.064-11.28-16.4-8.891a8.094,8.094,0,0,0-4.292,4.893C1603.831-3103.9,1604.351-3099.236,1606.492-3095.02Zm13.147,12.47c-5.858,0-12.26-4.3-15.74-11.153-2.533-4.986-3.094-10.365-1.539-14.761a10.943,10.943,0,0,1,5.847-6.577c6.735-3.011,15.79,1.579,20.185,10.23,2.534,4.984,3.094,10.365,1.539,14.759a10.929,10.929,0,0,1-5.846,6.577,10.829,10.829,0,0,1-4.445.924" transform="translate(-1601.495 3115.965)" fill="#371a45"/></g><g transform="translate(75.539 112.952)"><path d="M1623.477-2996.082c3.333,6.5,9.751,10.136,14.334,8.129s5.595-8.9,2.262-15.395-9.75-10.135-14.332-8.129-5.6,8.9-2.264,15.395" transform="translate(-1621.513 3012.028)" fill="#fff"/></g><g transform="translate(76.57 117.973)"><path d="M1651.956-2919.046c-4.584,2.007-11-1.632-14.334-8.129a19.208,19.208,0,0,1-.933-2.123c3.467,3.879,8.115,5.671,11.678,4.107,4.022-1.766,5.34-7.237,3.415-12.91a19.287,19.287,0,0,1,2.437,3.659c3.334,6.5,2.32,13.39-2.263,15.4" transform="translate(-1636.69 2938.101)" fill="#e8e8e8"/></g><g transform="translate(74.09 111.487)"><path d="M1608.552-3030.687a5.257,5.257,0,0,0-2.12.426,5.417,5.417,0,0,0-2.844,3.259c-1,2.817-.52,6.607,1.292,10.139,2.934,5.718,8.639,9.133,12.457,7.461a5.411,5.411,0,0,0,2.844-3.258c1-2.817.52-6.607-1.292-10.14C1616.462-3027.53,1612.136-3030.687,1608.552-3030.687Zm6.61,24.635c-4.7,0-9.872-3.643-12.87-9.482-2.171-4.234-2.712-8.884-1.445-12.443a8.186,8.186,0,0,1,4.419-4.949c5.356-2.345,12.477,1.519,16.21,8.8,2.172,4.232,2.713,8.885,1.446,12.444a8.186,8.186,0,0,1-4.419,4.947,8.272,8.272,0,0,1-3.341.684" transform="translate(-1600.174 3033.61)" fill="#371a45"/></g><g transform="translate(106.073 63.661)"><path d="M2123.6-3703.811a30.5,30.5,0,0,0-4.129-13.172,36.728,36.728,0,0,0-5.988-7.749c-2.3-2.408-6.959-4.574-10.182-5.491l-.048-.014a28.541,28.541,0,0,0-7.807-1.04c-12.695,0-24.25,7.367-24.25,7.367-1.029-.418,8.524-12.824,25.292-13.875.611-.038,1.207-.056,1.793-.056a24.314,24.314,0,0,1,18.109,7.93c1.514,1.576,4.069,4.863,4.948,6.036l.006.008c.1.137.187.273.277.413.389.607.75,1.21,1.079,1.807,3.314,6.056,2.94,11.7.9,17.837" transform="translate(-2071.124 3737.841)" fill="#9b8da2"/></g><g transform="translate(97.918 96.566)"><path d="M1957.227-3240.167a6.46,6.46,0,0,1-5.948-5.162c-.889-3.546.892-7.055,3.977-7.835a5.022,5.022,0,0,1,1.246-.156,6.463,6.463,0,0,1,5.949,5.161c.888,3.547-.893,7.055-3.978,7.837a5.1,5.1,0,0,1-1.246.156" transform="translate(-1951.05 3253.32)" fill="#9b8da2"/></g><g transform="translate(104.974 112.928)"><path d="M2059.278-3008.579a47.117,47.117,0,0,1-4.333-2.456,2.289,2.289,0,0,1,1.671-1.322,2.118,2.118,0,0,1,.343-.028,2.626,2.626,0,0,1,2.438,2.337,3.048,3.048,0,0,1-.119,1.468" transform="translate(-2054.945 3012.385)" fill="#9b8da2"/></g><g transform="translate(104.692 114.277)"><path d="M2053.276-2988.414a2.625,2.625,0,0,1-2.437-2.338,2.988,2.988,0,0,1,.24-1.769,46.668,46.668,0,0,0,4.334,2.456,2.344,2.344,0,0,1-1.793,1.622,2.147,2.147,0,0,1-.344.029" transform="translate(-2050.797 2992.52)" fill="#918796"/></g><g transform="translate(147.984 147.794)"><path d="M2688.344-2491.779l1.664-7.193,40.45.028-.306,6.977a1.982,1.982,0,0,1-.885,1.566l-19.493,12.94a5.289,5.289,0,0,1-6.224-.272l-14.28-11.387a2.642,2.642,0,0,1-.927-2.659" transform="translate(-2688.276 2498.972)" fill="#fff"/></g><g transform="translate(147.986 151.975)"><path d="M2730.273-2436.76l-.095,2.169a1.986,1.986,0,0,1-.887,1.568l-19.491,12.942a5.3,5.3,0,0,1-6.226-.271l-14.281-11.389a2.643,2.643,0,0,1-.923-2.659l.694-3.011a2.635,2.635,0,0,0,1,2.1l14.281,11.389a5.282,5.282,0,0,0,6.221.27l19.492-12.939a1.426,1.426,0,0,0,.217-.171" transform="translate(-2688.302 2437.412)" fill="#e8e8e8"/></g><g transform="translate(146.532 146.339)"><path d="M2669.832-2511.427a1.2,1.2,0,0,0,.416,1.193l14.281,11.389a3.824,3.824,0,0,0,4.512.2l19.492-12.939a.534.534,0,0,0,.237-.419l.24-5.458-37.775-.026-1.4,6.065m17.086,16.332a6.732,6.732,0,0,1-4.2-1.475l-14.281-11.389a4.118,4.118,0,0,1-1.437-4.123h0l1.666-7.192a1.453,1.453,0,0,1,1.417-1.127h0l40.45.028a1.46,1.46,0,0,1,1.051.449,1.457,1.457,0,0,1,.4,1.069l-.307,6.977a3.453,3.453,0,0,1-1.535,2.716l-19.492,12.939a6.743,6.743,0,0,1-3.732,1.129" transform="translate(-2666.895 2520.403)" fill="#371a45"/></g><g transform="translate(149.511 134.103)"><path d="M2712.316-2688.422l21.378-11.788a3,3,0,0,1,3.323.286l13.28,10.641a3,3,0,0,1-.25,4.861l-19.349,12.467a3,3,0,0,1-3.406-.109l-15.312-11.322a3,3,0,0,1,.336-5.036" transform="translate(-2710.764 2700.582)" fill="#fff"/></g><g transform="translate(148.057 132.645)"><path d="M2692.347-2708.426h0m22.827-10.707a1.548,1.548,0,0,0-.745.193l-21.38,11.787a1.518,1.518,0,0,0-.794,1.251,1.516,1.516,0,0,0,.622,1.344l15.312,11.32a1.553,1.553,0,0,0,1.755.057l19.348-12.467a1.533,1.533,0,0,0,.705-1.219,1.532,1.532,0,0,0-.576-1.285l-13.281-10.641a1.545,1.545,0,0,0-.966-.34m-6.066,29.1a4.457,4.457,0,0,1-2.649-.867l-15.312-11.322a4.435,4.435,0,0,1-1.8-3.876,4.436,4.436,0,0,1,2.294-3.6l21.378-11.787a4.442,4.442,0,0,1,4.935.423l13.28,10.643a4.4,4.4,0,0,1,1.663,3.7,4.409,4.409,0,0,1-2.035,3.515l-19.348,12.466a4.441,4.441,0,0,1-2.411.705" transform="translate(-2689.342 2722.043)" fill="#371a45"/></g><g transform="translate(165.554 160.515)"><path d="M2947.03-2298.754c2.962-4.571,14.124-16.536,28.162-11.828,14.606,4.9,17.788,27.251,18.338,29.037,1.619.636,9.276,2.469,11.143,7.9a7.63,7.63,0,0,1-.094,5.677c-4.389,9.531-18.449,8.92-25.265,6.106-10.414-4.3-18.208-22.261-18.208-22.261s-7.023-.225-10.743-4.206c-3.951-4.226-3.333-10.423-3.333-10.423" transform="translate(-2946.995 2311.66)" fill="#fff"/></g><g transform="translate(165.553 160.516)"><path d="M3004.567-2267.952c-4.388,9.531-18.447,8.92-25.265,6.105-10.416-4.3-18.208-22.262-18.208-22.262s-7.022-.225-10.742-4.2c-3.952-4.225-3.335-10.426-3.335-10.426a30.581,30.581,0,0,1,4.807-5.524c5.19-4.767,13.572-9.581,23.354-6.3a19.42,19.42,0,0,1,7.933,5.219c7.92,8.357,9.975,22.419,10.4,23.819,1.622.637,9.28,2.469,11.144,7.9.019.058.041.117.06.175a7.552,7.552,0,0,1-.154,5.5" transform="translate(-2946.982 2311.641)" fill="#fff"/></g><g transform="translate(168.923 160.516)"><path d="M3050.82-2267.952c-4.389,9.531-18.447,8.92-25.265,6.105-10.416-4.3-18.208-22.262-18.208-22.262s-7.022-.225-10.742-4.2a22.2,22.2,0,0,0,1.472-15.949c5.19-4.767,13.572-9.581,23.354-6.3a19.425,19.425,0,0,1,7.933,5.219c-1.068,2.047-3.392,4.76-8.236,8.03-4.182,2.825-9.705,20.487,3.563,29.03,11.385,7.331,23.631.989,26.282-5.167a7.553,7.553,0,0,1-.154,5.5" transform="translate(-2996.605 2311.641)" fill="#e8e8e8"/></g><g transform="translate(164.904 159.009)"><path d="M2937.5-2319.816c5.789-10.577,19.2-17.447,30.822-12.25,8.456,3.829,12.9,12.706,15.573,21.092.868,2.719,1.49,5.549,2.1,8.329l-.857-.926c4.065,1.277,8.444,2.884,11,6.59,2.9,4.445,1.927,9.314-1.814,12.986-5.193,5-13.047,5.555-19.739,4.317a22.2,22.2,0,0,1-13.127-7.767,52.5,52.5,0,0,1-5.876-8.056,41.009,41.009,0,0,1-4.057-9.011.72.72,0,0,1,.484-.9.721.721,0,0,1,.828.327c1.712,2.708,3.381,5.448,5.121,8.1,3.332,5.038,7.346,10.454,12.887,12.935,7.44,2.906,19.951,2.888,23.516-5.644a6.571,6.571,0,0,0-.8-5.563,11.978,11.978,0,0,0-5.034-3.894,31.309,31.309,0,0,0-3.234-1.284c-.689-.262-1.874-.455-2.078-1.357-1.695-8.11-4.081-16.587-9.712-22.861a18.738,18.738,0,0,0-21.86-4.411,32.389,32.389,0,0,0-6.948,4.276,42.678,42.678,0,0,0-5.988,5.748.721.721,0,0,1-1.2-.779" transform="translate(-2937.419 2333.839)" fill="#371a45"/></g><g transform="translate(180.612 163.621)"><path d="M3172.244-2231.673a1.455,1.455,0,0,1-1.37-.965c-.227-.634-5.483-15.662,1.3-26.135,7.356-11.357,17.727-5.793,17.83-5.736a1.454,1.454,0,0,1,.568,1.977,1.454,1.454,0,0,1-1.977.568c-.325-.176-8.122-4.268-13.98,4.773-6,9.258-1.056,23.433-1,23.575a1.455,1.455,0,0,1-.881,1.859,1.453,1.453,0,0,1-.489.085" transform="translate(-3168.72 2265.923)" fill="#371a45"/></g><g transform="translate(131.726 158.682)"><path d="M2448.992-2305.826c-1.6-9.294,12.8-27.323,19.6-31.89,5.128-2.75,9.042.939,7.735,6.169,0,0-14.219,9.469-19.346,31.142,0,0-6.815,1.019-7.991-5.421" transform="translate(-2448.868 2338.651)" fill="#fff"/></g><g transform="translate(131.727 158.681)"><path d="M2476.59-2333.772a7.966,7.966,0,0,1-.248,2.211s-14.217,9.469-19.345,31.142c0,0-6.814,1.018-7.989-5.422a12.606,12.606,0,0,1,.417-5.258c2.557-9.661,13.509-22.823,19.182-26.632,4.368-2.343,7.855-.012,7.982,3.959" transform="translate(-2448.885 2338.667)" fill="#fff"/></g><g transform="translate(131.727 163.576)"><path d="M2476.59-2266.59a7.965,7.965,0,0,1-.248,2.211s-14.217,9.47-19.345,31.142c0,0-6.814,1.018-7.989-5.422a12.6,12.6,0,0,1,.417-5.258,5.616,5.616,0,0,0,3.742,1.364c5.325,0,11.532-20.021,23.423-24.037" transform="translate(-2448.885 2266.59)" fill="#e8e8e8"/></g><g transform="translate(130.274 157.236)"><path d="M2430.5-2325.932c.689,3.761,3.777,4.285,5.4,4.292,4.887-19.239,16.6-28.715,19.2-30.619a4.242,4.242,0,0,0-1.178-4.178c-1.1-.856-2.736-.811-4.5.118C2442.436-2351.584,2429.07-2334.266,2430.5-2325.932Zm5.457,7.207c-3,0-7.347-1.355-8.32-6.693l0-.013c-1.766-10.236,13.28-28.685,20.224-33.345.041-.027.082-.051.124-.074,2.81-1.505,5.7-1.462,7.729.12,2.079,1.617,2.885,4.563,2.105,7.683a1.459,1.459,0,0,1-.6.859c-.136.091-13.814,9.459-18.737,30.266a1.454,1.454,0,0,1-1.2,1.1,8.91,8.91,0,0,1-1.315.093" transform="translate(-2427.49 2359.948)" fill="#371a45"/></g><g transform="translate(173.886 139.349)"><path d="M3072.2-2615.376c2.1,1.1,4.526.6,5.417-1.108l1.5-2.884-7.614-3.968-1.5,2.885c-.89,1.709.094,3.979,2.2,5.074" transform="translate(-3069.677 2623.336)" fill="#22a7f0"/></g><g transform="translate(174.972 141.909)"><path d="M3085.692-2583.673a1.913,1.913,0,0,1,.191-1.14l.432-.83a3.706,3.706,0,0,0,.167.392l-.635,1.218a2.642,2.642,0,0,0-.156.359" transform="translate(-3085.675 2585.642)" fill="#bce4fa"/></g><g transform="translate(174.906 139.347)"><path d="M3086.208-2615.4c2.1,1.1,4.526.6,5.416-1.109l1.5-2.886-7.614-3.968-.809,1.554,3.734,1.945-1.5,2.884a2.993,2.993,0,0,1-1.271,1.258,5.719,5.719,0,0,0,.543.322" transform="translate(-3084.705 2623.358)" fill="#1c7aea"/></g><g transform="translate(172.799 138.257)"><path d="M3057.057-2636.848l-1,1.919c-.611,1.17.167,2.787,1.733,3.6s3.334.527,3.945-.643l1-1.918-5.676-2.96m2.522,8.157a6.077,6.077,0,0,1-2.8-.7c-2.632-1.373-3.825-4.308-2.659-6.546l1.5-2.885a1.089,1.089,0,0,1,.639-.538,1.093,1.093,0,0,1,.832.074l7.612,3.967a1.092,1.092,0,0,1,.537.64,1.1,1.1,0,0,1-.073.832l-1.5,2.885a4.486,4.486,0,0,1-4.091,2.271" transform="translate(-3053.674 2639.41)" fill="#371a45"/></g><g transform="translate(175.39 137.663)"><path d="M3094.348-2641.4c2.1,1.1,4.527.6,5.415-1.1s-.1-3.976-2.2-5.073-4.528-.6-5.415,1.1.094,3.976,2.2,5.071" transform="translate(-3091.823 2648.161)" fill="#22a7f0"/></g><g transform="translate(176.087 142.823)"><path d="M3103.844-2570.627a5,5,0,0,1-1.754-1.559,5.013,5.013,0,0,0,1.754,1.559h0" transform="translate(-3102.09 2572.185)" fill="#bce4fa"/></g><g transform="translate(177.84 144.381)"><path d="M3128.3-2549.046q-.16-.07-.317-.153l-.074-.038h0c.025.013.049.027.074.039.106.055.21.106.317.153" transform="translate(-3127.911 2549.238)" fill="#bad7f9"/></g><g transform="translate(175.39 137.664)"><path d="M3095.057-2641.089c-.127-.045-.256-.1-.381-.151-.107-.047-.212-.1-.317-.152l-.074-.04a4.982,4.982,0,0,1-1.753-1.558,3.371,3.371,0,0,1-.369-3.474,3.386,3.386,0,0,1,3.106-1.686,5.024,5.024,0,0,1,2.308.583,5.265,5.265,0,0,1,.648.4,4.853,4.853,0,0,0-1.61-.281,3.378,3.378,0,0,0-3.1,1.686,3.777,3.777,0,0,0,1.546,4.672" transform="translate(-3091.834 2648.149)" fill="#bce4fa"/></g><g transform="translate(176.369 138.067)"><path d="M3107.784-2635.859c2.1,1.1,4.529.6,5.417-1.1s-.1-3.973-2.2-5.07c-.129-.067-.258-.127-.386-.18a3.473,3.473,0,0,1,.651,3.835c-.835,1.6-3.026,2.137-5.028,1.285a5.037,5.037,0,0,0,1.545,1.235" transform="translate(-3106.239 2642.213)" fill="#1c7aea"/></g><g transform="translate(174.302 136.577)"><path d="M3080.315-2661.984a2.3,2.3,0,0,0-2.125,1.106c-.6,1.149.194,2.8,1.735,3.6a3.716,3.716,0,0,0,2.44.4,2.1,2.1,0,0,0,1.5-1.037c.6-1.149-.195-2.8-1.733-3.6A3.981,3.981,0,0,0,3080.315-2661.984Zm1.412,7.346a6.092,6.092,0,0,1-2.81-.707c-2.634-1.371-3.827-4.306-2.661-6.542s4.255-2.94,6.887-1.567,3.826,4.306,2.661,6.542a4.236,4.236,0,0,1-3,2.168,5.413,5.413,0,0,1-1.075.106" transform="translate(-3075.808 2664.156)" fill="#371a45"/></g><g transform="translate(153.851 142.47)"><path d="M2800.479-2562.254a1.444,1.444,0,0,1-.882-.3l-6.263-4.784a6.945,6.945,0,0,0-3.621-1.4l-3.385-.294a9.9,9.9,0,0,1-4.435-1.5l-6.561-4.164a1.455,1.455,0,0,1-.446-2.008,1.454,1.454,0,0,1,2.007-.448l6.559,4.165a6.98,6.98,0,0,0,3.127,1.057l3.384.3a9.858,9.858,0,0,1,5.136,1.987l6.263,4.786a1.454,1.454,0,0,1,.273,2.038,1.45,1.45,0,0,1-1.156.572" transform="translate(-2774.657 2577.381)" fill="#371a45"/></g><g transform="translate(170.411 134.767)"><path d="M3048.266-2664.549s-4.492,11.664-15.935,11.062-16.487-20.771-12.443-29.858c4.779-10.738,20.217-11.036,23.913,6.753l4.466,12.043" transform="translate(-3018.506 2690.805)" fill="#fff"/></g><g transform="translate(170.409 134.766)"><path d="M3048.246-2664.559s-4.131,10.724-14.56,11.077c-.447.014-.906.012-1.378-.014-11.444-.6-16.488-20.772-12.444-29.86,4.578-10.28,18.923-10.991,23.379,4.578v.007c.2.691.377,1.412.534,2.168l4.469,12.044" transform="translate(-3018.483 2690.815)" fill="#fff"/></g><g transform="translate(184.24 146.811)"><path d="M3238.083-2499.244s-4.13,10.724-14.561,11.076l-1.371-8.892,3.207-4.217s9,1.028,7.721-12.18c.2.691.377,1.411.534,2.167l4.469,12.044" transform="translate(-3222.152 2513.456)" fill="#e8e8e8"/></g><g transform="translate(168.755 133.235)"><path d="M3026.215-2685.311c-1.681,7.925-10.476,13.708-18.471,12.115-6.666-1.438-10.453-8.143-12.244-14.183-1.617-5.813-2.178-12.4.377-18.034,2.745-6.062,9.867-9.671,16.237-7.117a15.206,15.206,0,0,1,8.409,8.925,19.541,19.541,0,0,1,1.26,5.842.736.736,0,0,1-.692.776.737.737,0,0,1-.733-.481c-1.873-4.838-4.161-10.275-9.312-12.252-4.891-1.9-10.229,1.093-12.263,5.7-1.484,3.212-1.535,6.894-1.191,10.386.763,6.745,4.231,16.763,12,17.564a13.045,13.045,0,0,0,7.974-1.986c3.009-1.925,5.137-4.929,7.293-7.774a.74.74,0,0,1,1.357.523" transform="translate(-2994.123 2713.36)" fill="#371a45"/></g><g transform="translate(170.409 138.739)"><path d="M3037.284-2599.535a14.731,14.731,0,0,1-4.978.561c-9.885-.52-14.993-15.64-13.6-25.6,1.161-3.149,3.4-6.76,7.659-7.579,6.352-1.221,12.123,4.416,14.349,16.259,1.138,6.07,1.839,13.557-3.433,16.363" transform="translate(-3018.482 2632.321)" fill="#afafb2"/></g><g transform="translate(171.378 145.437)"><path d="M3050.58-2507.6a14.737,14.737,0,0,1-4.978.561c-6.554-.342-11-7.1-12.856-14.524,2.348,4.178,5.742,7.116,10.044,6.993,11.029-.323,9.549-10.854,8.411-16.924q-.211-1.134-.469-2.193a32.4,32.4,0,0,1,3.281,9.724c1.139,6.07,1.84,13.557-3.433,16.364" transform="translate(-3032.746 2533.69)" fill="#898989"/></g><g transform="translate(168.952 137.286)"><path d="M3000.129-2644.162c-.88,6.652,1.335,15.136,5.183,19.8a9.811,9.811,0,0,0,7.072,3.991,13.423,13.423,0,0,0,4.345-.461c4.265-2.407,3.611-9.133,2.559-14.742-1.261-6.714-3.778-11.653-7.085-13.9a7.167,7.167,0,0,0-5.558-1.194C3003.74-2650.111,3001.551-2647.922,3000.129-2644.162Zm17.156,24.688h0Zm-4.133,2.037c-.3,0-.613-.008-.922-.024a12.747,12.747,0,0,1-9.161-5.047c-4.415-5.354-6.853-14.694-5.8-22.212l.021-.155.054-.146c1.769-4.8,4.795-7.744,8.748-8.5a10.112,10.112,0,0,1,7.745,1.646c4.01,2.728,6.883,8.182,8.308,15.771,1.246,6.644,1.9,14.682-4.18,17.918l-.13.069-.143.043a16.135,16.135,0,0,1-4.543.64" transform="translate(-2997.026 2653.714)" fill="#371a45"/></g><g transform="translate(168.973 143.538)"><path d="M2998.8-2554.848a1.453,1.453,0,0,1-1.193-.62,1.456,1.456,0,0,1,.356-2.026c.258-.181,6.484-4.427,19.551-4.143a1.455,1.455,0,0,1,1.423,1.487,1.456,1.456,0,0,1-1.455,1.421h-.033c-12.134-.265-17.76,3.579-17.815,3.618a1.458,1.458,0,0,1-.833.264" transform="translate(-2997.344 2561.652)" fill="#371a45"/></g><g transform="translate(169.521 150.371)"><path d="M3006.858-2454.219a1.454,1.454,0,0,1-1.358-.931,1.455,1.455,0,0,1,.834-1.879,71.848,71.848,0,0,1,21.377-4.005,1.455,1.455,0,0,1,1.5,1.4,1.456,1.456,0,0,1-1.4,1.5,70.283,70.283,0,0,0-20.434,3.812,1.457,1.457,0,0,1-.521.1" transform="translate(-3005.402 2461.035)" fill="#371a45"/></g><g transform="translate(171.37 157.188)"><path d="M3034.086-2354.427a1.456,1.456,0,0,1-1.379-.987,1.457,1.457,0,0,1,.912-1.846,76.485,76.485,0,0,1,20.128-3.391,1.463,1.463,0,0,1,1.5,1.408,1.456,1.456,0,0,1-1.408,1.5,74.724,74.724,0,0,0-19.287,3.238,1.453,1.453,0,0,1-.465.077" transform="translate(-3032.631 2360.652)" fill="#371a45"/></g><g transform="translate(174.535 163.414)"><path d="M3080.687-2263.522a1.454,1.454,0,0,1-1.39-1.024,1.454,1.454,0,0,1,.958-1.818,72.894,72.894,0,0,1,17.689-2.606,1.463,1.463,0,0,1,1.5,1.406,1.454,1.454,0,0,1-1.407,1.5,71.408,71.408,0,0,0-16.922,2.477,1.469,1.469,0,0,1-.429.065" transform="translate(-3079.232 2268.971)" fill="#371a45"/></g></g></svg>