<svg xmlns="http://www.w3.org/2000/svg" width="13" height="16" viewBox="0 0 13 16"><g transform="translate(-1.945 0.002)"><path d="M10.715,6A2.715,2.715,0,1,0,13.43,8.715,2.715,2.715,0,0,0,10.715,6Zm0,4.072a1.357,1.357,0,1,1,1.357-1.357A1.357,1.357,0,0,1,10.715,10.072Z" transform="translate(-2.27 -2.037)"></path><path d="M8.445,16a3.376,3.376,0,0,1-2.787-1.467C3.195,11.027,1.945,8.393,1.945,6.7A6.6,6.6,0,0,1,8.445,0a6.6,6.6,0,0,1,6.5,6.7c0,1.692-1.25,4.326-3.713,7.831A3.376,3.376,0,0,1,8.445,16Zm0-14.545A5.177,5.177,0,0,0,3.355,6.7c0,1.34,1.224,3.818,3.445,6.977a2,2,0,0,0,3.29,0c2.221-3.159,3.445-5.637,3.445-6.977a5.177,5.177,0,0,0-5.09-5.249Z" transform="translate(0 0)"></path></g></svg>